<svg xmlns="http://www.w3.org/2000/svg"
     xmlns:xlink="http://www.w3.org/1999/xlink"
     version="1.1"
     viewBox="0 0 240 60">
    <g transform="translate(35,-35)">
        <g transform="scale(0.2,0.2)">
            <path fill="#E32C24" d="M-130.3159485,330.9797668c0.3563995,0,0.7121429-0.0110168,1.0659485-0.0326843  c-0.734787,1.265686-1.4184723,2.5565796-2.0471802,3.8699341c-2.030365,4.2449036-2.2858582,9.0216675-0.7212067,13.4549866  c1.5646667,4.4320068,4.7612457,7.9898376,9.001152,10.0179443c2.3938751,1.144043,4.9455795,1.7234497,7.5871887,1.7234497  c1.8382645,0,3.6377182-0.2918701,5.3433762-0.8399048c-1.4061813,4.7010803-2.3582993,10.0819702-2.6713638,16.2819214  c-0.2231522,4.733429,1.3990707,9.2357788,4.5652542,12.7140503c3.1661835,3.4785767,7.4972839,5.5154114,12.1944885,5.7358093  c0.2787857,0.0131226,0.5549774,0.0195923,0.8311691,0.0195923c9.4157486,0,17.1387787-7.3702087,17.5811996-16.7788391  c0.4954681-9.8330994,4.1519394-14.1108704,9.1531448-17.9456787c5.0257912,5.9363403,10.4028015,10.9972229,15.9615707,15.0209351  c-0.4682999,2.7837219-0.7794189,5.6873169-0.9314194,8.6917725c-0.223156,4.7353821,1.3984222,9.2377319,4.5639572,12.7155151  c3.1661835,3.4782715,7.4972878,5.5151062,12.195137,5.7353516c0.2781334,0.0129395,0.5543251,0.0194092,0.8311653,0.0194092  c6.9798298,0,13.0288868-4.0497437,15.8716602-9.9775085c2.8395367,5.9206543,8.8931227,9.9775085,15.8787746,9.9775085  c0.2761919,0,0.5536776-0.0064697,0.8324568-0.0195618c9.6951799-0.4545593,17.2144585-8.7139587,16.7597427-18.4114075  c-0.1520023-3.0253296-0.4644165-5.9405518-0.9333601-8.7312622c5.6965408-4.1237793,11.2009754-9.3355408,16.3341351-15.4644775  c5.3026295,3.9582214,9.2262363,8.1822815,9.7430439,18.425293c0.4385452,9.3717651,8.16222,16.7429504,17.5805588,16.7429504  c0.2761917,0,0.5536766-0.0064697,0.8324585-0.0197449c9.6951752-0.4547119,17.2138062-8.7142639,16.7590942-18.4117126  c-0.3137054-6.2169189-1.2690582-11.6107483-2.6778336-16.3211975c1.7063141,0.5484924,3.5083542,0.8411865,5.347908,0.8411865  c2.6416092,0,5.1933136-0.5792236,7.583313-1.7215271c8.7572937-4.1891174,12.4726257-14.7169189,8.285759-23.4701538  c-0.6300049-1.3150024-1.3143387-2.6075134-2.050415-3.8747864c0.354454,0.0218201,0.7102051,0.0328369,1.0666046,0.0328369  c4.5012131,0,8.7851028-1.6985474,12.064476-4.7827454c7.0703888-6.6522217,7.4112625-17.817627,0.7606583-24.8902893  c-7.6369934-8.1401978-16.7759094-13.9389343-27.9290237-17.7183228c-5.6001663-1.8974304-11.13694-3.0752869-16.3444824-3.8670044  c0.0187569-0.7313843,0.0284576-1.4555054,0.0284576-2.1712036c0-44.0676727-35.8512726-79.9192657-79.9190979-79.9192657  s-79.9197388,35.851593-79.9197388,79.9192657c0,0.7666321,0.010994,1.5426636,0.033638,2.3274231  c-4.8712006,0.7831116-10.1356659,1.9318848-15.3865509,3.7102966c-11.1531067,3.777771-20.2920227,9.5765076-27.9393768,17.7278748  c-6.6415405,7.0645752-6.3000183,18.2291565,0.7684326,24.880249  C-139.1016998,329.2810364-134.8171692,330.9797668-130.3159485,330.9797668z M-135.363739,308.6203308  c7.0587463-7.523468,15.1731033-12.0737,23.5785217-14.9206543c7.8459244-2.6576233,15.8684311-3.7782593,23.4633865-4.4852295  c-0.563385-4.0358276-0.8589783-7.9492493-0.8589783-11.6642456c0-38.2432251,31.0020638-69.2433472,69.2433319-69.2433472  c38.2419205,0,69.2433319,31.0001221,69.2433319,69.2433472c0,3.6915588-0.2923622,7.580719-0.8492737,11.5898743  c0.1287155,0.004364,0.258728,0.0129395,0.3874435,0.0235901c7.7637787,0.7034302,15.987442,1.8117676,24.0274124,4.5360107  c8.4047699,2.8480835,16.5191269,7.3971863,23.5778656,14.9206543c2.6228561,2.789093,2.4896088,7.1774292-0.2981796,9.800293  c-1.3382721,1.2590332-3.0458755,1.8832092-4.7495956,1.8832092c-1.8453827,0-3.6868744-0.7318726-5.0510178-2.1817017  c-5.3013306-5.6517639-11.4849319-9.1001282-17.9311371-11.2828064c-6.8090668-2.3070374-13.9965286-3.2659607-20.8230629-3.885437  c-0.6558723-0.0587158-1.280056-0.2076416-1.8660736-0.4333801c-0.7425499,2.8054199-1.5982895,5.6315308-2.555584,8.4562073  c8.7779884,1.7064514,16.8735847,5.1040344,23.6748962,9.9163818c6.848526,4.8451538,12.3516617,11.116394,15.9046478,18.5352478  c1.6493835,3.4485168,0.1908112,7.5813904-3.2573853,9.2307739c-0.9631195,0.4602051-1.9799194,0.6781921-2.980545,0.6781921  c-2.582756,0-5.0607147-1.4508057-6.2482758-3.9362183c-2.5135422-5.2486267-6.4591446-9.7191162-11.3995514-13.2151794  c-5.1965523-3.6768494-11.532795-6.2919312-18.5262108-7.6255188c-0.8001137-0.1541138-1.5400772-0.4385376-2.2056541-0.8272705  c-1.3013992,2.8738098-2.704998,5.7089844-4.2004471,8.4841614c0.6190071,0.2621155,1.2102013,0.6211243,1.7509422,1.074707  c1.0782471,0.9068298,2.7560959,2.0914917,4.5329094,3.34729c9.6020393,6.7809143,21.7506065,15.361969,22.9620972,39.354126  c0.1791725,3.8215637-2.7748528,7.0684204-6.5962639,7.2475891c-0.1106071,0.005188-0.2212143,0.007782-0.3311729,0.007782  c-3.6778145,0-6.7443886-2.8920898-6.9183807-6.6043701c-0.8667412-17.1958618-9.9325638-23.5987244-17.0973854-28.6584778  c-1.8272648-1.2921753-3.5516872-2.5085144-5.4248772-4.0819092c-7.4571819,10.8292236-16.4130478,19.9137878-26.3184433,25.3993225  c1.2509491,4.0264587,2.0956957,8.687439,2.370594,14.1488647c0.1791689,3.822998-2.7735627,7.0681152-6.5969133,7.2474365  c-0.1106062,0.005188-0.2212124,0.0077515-0.3311715,0.0077515c-3.6771698,0-6.7418013-2.8920898-6.9164429-6.6044922  c-0.1921053-3.7877808-0.7807112-7.050354-1.6590919-9.8921509c-2.3990545,0.4699097-4.8343296,0.7174988-7.3000069,0.7174988  c-2.4643822,0-4.8990116-0.2492065-7.2980652-0.7208862c-0.8796749,2.8435669-1.4689274,6.1077576-1.6610336,9.8955383  c-0.1739941,3.7120972-3.2392731,6.6044922-6.9157944,6.6044922c-0.1099586,0-0.2199211-0.0025635-0.3311729-0.0077515  c-3.823349-0.1793213-6.7767296-3.4244385-6.5969124-7.2474365c0.2761917-5.4630432,1.1209373-10.1240234,2.3699455-14.1488647  c-9.7514534-5.3998108-18.5831261-14.2889099-25.9685135-24.894165c-1.6416321,1.3353577-3.186882,2.4275208-4.8142776,3.5767517  c-7.1648254,5.0597534-16.2306442,11.462616-17.0967407,28.6584778c-0.1746368,3.7120972-3.2412109,6.6043701-6.9170837,6.6043701  c-0.1099625,0-0.2199249-0.002594-0.3311768-0.007782c-3.822052-0.1791687-6.7773743-3.4260254-6.5975571-7.2475891  c1.2108459-23.992157,13.3594131-32.5732117,22.9614487-39.354126c1.7768173-1.2557983,3.4546661-2.4404602,4.5329132-3.34729  c0.3156509-0.2648926,0.6481094-0.4983826,0.9941635-0.6982422c-1.5038605-2.7685547-2.9152222-5.5982361-4.2243805-8.4668884  c-0.4501877,0.1904907-0.9262466,0.3382874-1.4243011,0.4335327c-6.9940567,1.3335876-13.3302994,3.9486694-18.52491,7.6255188  c-4.9423523,3.4960632-8.8873062,7.9665527-11.4008408,13.2151794c-1.187561,2.4850769-3.6655273,3.9362183-6.2482834,3.9362183  c-1.0006256,0-2.0174255-0.2179871-2.980545-0.6781921c-3.4481964-1.6493835-4.9074173-5.7822571-3.2580261-9.2307739  c3.5529785-7.4188538,9.0561218-13.690094,15.9065857-18.5352478c6.5678101-4.6470947,14.3412857-7.9752808,22.7719345-9.7355957  c-0.9495316-2.7926636-1.8026886-5.5869141-2.5439453-8.3620911c-0.3175888,0.0743713-0.6429367,0.1283875-0.9766922,0.1584778  c-6.8265381,0.6194763-14.0133514,1.5783997-20.8230667,3.885437c-6.4462051,2.1826782-12.629158,5.6310425-17.9304886,11.2828064  c-1.3647919,1.4494934-3.2062912,2.1817017-5.0516586,2.1817017c-1.7037201,0-3.4106903-0.6238403-4.7496033-1.8832092  C-137.8526917,315.79776-137.9859314,311.4094238-135.363739,308.6203308z" />
            <path fill="#E32C24" d="M-5.570962,228.1672974c4.8899565,1.7050171,37.0795822,20.9750671,36.1416931,55.7616577  c-0.0827923,3.1073303,2.3686523,5.6946106,5.475975,5.7780457c0.0517464,0.0013123,0.1021996,0.0019531,0.1539421,0.0019531  c3.0387611,0,5.5419502-2.421051,5.6247444-5.4772644c1.1539268-42.8641052-38.8635101-65.3954163-44.2980881-66.8856964  c-3.0102987-0.8233948-6.1577229,0.9249573-6.9778905,3.9223175C-10.272047,224.2663269-8.5683241,227.3451843-5.570962,228.1672974  z" />
        </g>
    </g>
    <g xmlns="http://www.w3.org/2000/svg" transform="translate(61.235870361328125,0)">
        <g class="tp-name iconsvg-namesvg" transform="translate(0,0)">
            <g>
                <path fill="#838181" d="M2.20-4.13L2.20-4.13Q2.20-4.81 2.69-5.25Q3.18-5.69 3.89-5.69L3.89-5.69Q4.71-5.69 5.32-4.77L5.32-4.77Q6.16-3.52 6.81-3.05L6.81-3.05Q8.23-2.13 10.90-2.13L10.90-2.13Q13.44-2.13 15.64-3.25L15.64-3.25Q18.45-4.67 18.45-7.18L18.45-7.18Q18.45-9.28 16.12-10.50L16.12-10.50Q14.12-11.51 11.17-11.61L11.17-11.61Q8.53-11.71 6.70-12.73L6.70-12.73Q4.37-14.08 4.37-16.59L4.37-16.59Q4.37-19.54 7.72-21.94L7.72-21.94Q10.90-24.24 14.29-24.24L14.29-24.24Q15.91-24.24 17.91-23.70L17.91-23.70Q20.59-22.99 20.59-21.87L20.59-21.87Q20.59-20.45 19.10-20.45L19.10-20.45Q18.45-20.45 16.79-20.81Q15.13-21.16 14.22-21.13L14.22-21.13Q11.65-21.09 9.85-19.84L9.85-19.84Q7.99-18.59 7.99-16.76L7.99-16.76Q7.99-15.41 10.46-14.83L10.46-14.83Q11.34-14.63 13.98-14.42L13.98-14.42Q17.74-14.15 19.87-12.05L19.87-12.05Q21.84-10.12 21.84-7.38L21.84-7.38Q21.84-3.45 18.22-1.08L18.22-1.08Q15.03 0.91 10.87 0.91L10.87 0.91Q7.86 0.91 5.35-0.20L5.35-0.20Q2.27-1.63 2.20-4.13ZM32.77 0.58L32.77 0.58Q31.15 0.58 29.15 0.03L29.15 0.03L29.12 7.92Q29.12 8.67 28.66 9.12Q28.20 9.58 27.49 9.58L27.49 9.58Q26.78 9.58 26.32 9.12Q25.87 8.67 25.87 7.92L25.87 7.92L25.94 1.32L25.94-5.25Q25.87-8.87 25.66-11.85L25.66-11.85L25.43-15.20Q25.43-16.39 25.87-17.20L25.87-17.20Q26.34-18.18 27.29-18.18L27.29-18.18Q27.93-18.18 28.37-17.72Q28.81-17.27 28.81-16.59L28.81-16.59Q28.81-16.46 28.78-16.05L28.78-16.05Q28.68-15.54 28.64-15.10L28.64-15.10Q30.07-16.08 31.39-16.57Q32.71-17.06 33.93-17.06L33.93-17.06Q37.31-17.06 38.90-14.05L38.90-14.05Q40.12-11.68 40.12-7.75L40.12-7.75Q40.12-4.20 38.23-1.86L38.23-1.86Q36.16 0.58 32.77 0.58ZM33.93-13.75L33.93-13.75Q32.40-13.75 31.18-13.07L31.18-13.07Q30.30-12.60 28.98-11.31L28.98-11.31Q29.19-7.58 29.19-3.45L29.19-3.45Q30.98-2.74 32.77-2.74L32.77-2.74Q34.84-2.74 35.96-4.27L35.96-4.27Q36.87-5.62 36.87-7.75L36.87-7.75Q36.87-10.77 36.14-12.26Q35.42-13.75 33.93-13.75ZM47.00-20.92L47.00-20.92Q46.22-20.92 45.64-21.48Q45.07-22.04 45.07-22.85L45.07-22.85Q45.07-23.63 45.64-24.19Q46.22-24.75 47.00-24.75L47.00-24.75Q47.81-24.75 48.37-24.19Q48.93-23.63 48.93-22.85L48.93-22.85Q48.93-22.04 48.37-21.48Q47.81-20.92 47.00-20.92ZM47.74-7.52L47.74-7.52Q47.74-6.50 47.81-4.54Q47.88-2.57 47.88-1.56L47.88-1.56Q47.88-0.85 47.42-0.39Q46.96 0.07 46.25 0.07L46.25 0.07Q45.54 0.07 45.08-0.39Q44.63-0.85 44.63-1.56L44.63-1.56Q44.63-2.57 44.56-4.54Q44.49-6.50 44.49-7.52L44.49-7.52Q44.49-9.07 44.66-11.39Q44.83-13.71 44.83-15.27L44.83-15.27Q44.83-16.01 45.29-16.47Q45.74-16.93 46.45-16.93L46.45-16.93Q47.16-16.93 47.62-16.47Q48.08-16.01 48.08-15.27L48.08-15.27Q48.08-13.71 47.91-11.39Q47.74-9.07 47.74-7.52ZM68.56-14.59L68.56-14.59Q68.36-12.16 68.36-9.75L68.36-9.75Q68.36-4.23 68.87-1.42L68.87-1.42Q68.90-1.19 68.90-1.05L68.90-1.05Q68.90-0.37 68.43 0.05Q67.95 0.47 67.34 0.47L67.34 0.47Q66.33 0.47 65.85-1.02L65.85-1.02Q64.67-0.14 63.38 0.30Q62.10 0.74 60.71 0.74L60.71 0.74Q57.29 0.74 55.05-1.52L55.05-1.52Q52.72-3.86 52.72-7.52L52.72-7.52Q52.72-11.92 55.05-14.58Q57.39-17.23 61.15-17.23L61.15-17.23Q63.04-17.23 64.09-16.66L64.09-16.66L65.65-15.51Q65.89-22.48 66.19-24.89L66.19-24.89Q66.43-26.34 67.72-26.34L67.72-26.34Q69.21-26.34 69.21-24.75L69.21-24.75Q69.21-22.45 68.56-14.59ZM61.22-14.15L61.22-14.15Q58.44-14.15 57.05-12.51Q55.66-10.87 55.66-7.58L55.66-7.58Q55.66-5.45 57.17-3.91Q58.68-2.37 60.71-2.37L60.71-2.37Q62.10-2.37 63.04-2.88L63.04-2.88Q63.62-3.18 64.91-4.23L64.91-4.23Q65.14-4.47 65.38-4.77L65.38-4.77L65.31-7.62L65.35-9.55L65.38-11.48Q64.74-12.83 63.70-13.49Q62.67-14.15 61.22-14.15ZM80.92 0.74L80.92 0.74Q77.20 0.74 74.86-1.12L74.86-1.12Q72.32-3.18 72.32-6.91L72.32-6.91Q72.32-11.21 74.42-14.12L74.42-14.12Q76.69-17.27 80.48-17.27L80.48-17.27Q83.22-17.27 84.95-16.35L84.95-16.35Q87.08-15.20 87.08-12.83L87.08-12.83Q87.08-11.21 85.22-9.85L85.22-9.85Q84.37-9.24 81.70-7.99L81.70-7.99L75.40-4.98Q76.32-3.62 77.70-2.93Q79.09-2.23 80.92-2.23L80.92-2.23Q82.07-2.23 83.60-2.67L83.60-2.67Q85.56-3.22 86.12-4.10Q86.68-4.98 87.32-4.98L87.32-4.98Q87.90-4.98 88.35-4.54Q88.81-4.10 88.81-3.52L88.81-3.52Q88.81-1.69 85.83-0.37L85.83-0.37Q83.32 0.74 80.92 0.74ZM80.48-14.29L80.48-14.29Q78.45-14.29 77.11-12.73Q75.77-11.17 75.13-8.02L75.13-8.02L80.18-10.46Q83.19-11.92 84.44-12.97L84.44-12.97Q83.02-14.29 80.48-14.29ZM104.59-12.22L104.59-12.22Q104.45-10.16 102.93-10.16L102.93-10.16Q101.51-10.16 101.51-11.78L101.51-11.78Q101.51-12.09 101.44-12.93L101.44-12.93L101.41-14.32Q98.80-14.02 97.21-12.87L97.21-12.87Q95.75-11.78 94.77-9.62L94.77-9.62L94.80-0.58Q94.80 1.08 93.18 1.08L93.18 1.08Q91.72 1.08 91.72-0.58L91.72-0.58L91.72-12.16Q91.72-12.70 91.76-13.80Q91.79-14.90 91.79-15.44L91.79-15.44Q91.79-17.10 93.25-17.10L93.25-17.10Q94.87-17.10 94.90-14.36L94.90-14.36Q98.05-17.44 101.95-17.44L101.95-17.44Q103.27-17.44 103.93-16.42Q104.59-15.41 104.59-13.37L104.59-13.37Q104.59-12.53 104.59-12.22ZM123.95-21.74L123.95-21.74Q123.65-21.74 123.31-21.87L123.31-21.87Q121.28-22.62 117.89-22.62L117.89-22.62Q116.81-22.62 115.35-22.46Q113.90-22.31 112.07-21.97L112.07-21.97L112.04-14.83Q115.22-15.68 116.84-15.68L116.84-15.68Q119.38-15.68 122.09-15.37L122.09-15.37Q123.65-15.20 123.65-13.68L123.65-13.68Q123.65-12.93 123.18-12.46Q122.70-11.99 121.99-11.99L121.99-11.99Q121.14-11.99 119.42-12.12Q117.69-12.26 116.84-12.26L116.84-12.26Q115.69-12.26 111.97-11.31L111.97-11.31L111.83 0.03Q111.83 0.74 111.36 1.24Q110.89 1.73 110.17 1.73L110.17 1.73Q109.46 1.73 108.99 1.24Q108.52 0.74 108.52 0.03L108.52 0.03Q108.52-3.18 108.65-9.70Q108.79-16.22 108.79-19.50L108.79-19.50Q108.79-20.21 108.75-21.69Q108.72-23.16 108.72-23.87L108.72-23.87Q108.72-24.61 109.18-25.11Q109.63-25.60 110.38-25.60L110.38-25.60Q110.92-25.60 111.33-25.29L111.33-25.29Q113.39-25.66 115.03-25.83Q116.68-26.00 117.89-26.00L117.89-26.00Q119.79-26.00 122.26-25.46L122.26-25.46Q125.58-24.68 125.58-23.46L125.58-23.46Q125.58-22.82 125.14-22.31L125.14-22.31Q124.67-21.74 123.95-21.74ZM132.69-13.00L132.69-13.00L132.45-4.77Q132.45-3.49 132.32-0.95L132.32-0.95Q132.15 0.68 130.69 0.68L130.69 0.68Q129.07 0.68 129.07-0.98L129.07-0.98Q129.07-2.98 129.25-6.99Q129.44-11.00 129.44-13.00L129.44-13.00Q129.44-15.61 129.52-18.98Q129.61-22.35 129.61-24.95L129.61-24.95Q129.61-26.61 131.20-26.61L131.20-26.61Q132.86-26.61 132.86-24.95L132.86-24.95Q132.86-22.35 132.77-18.98Q132.69-15.61 132.69-13.00ZM143.93 0.95L143.93 0.95Q141.15 0.95 139.16-1.08L139.16-1.08Q136.92-3.35 136.82-7.21L136.82-7.21Q136.72-10.94 138.68-13.78L138.68-13.78Q141.02-17.13 145.15-17.13L145.15-17.13Q148.43-17.13 150.16-14.12L150.16-14.12Q151.52-11.68 151.45-8.23L151.45-8.23Q151.41-4.57 149.55-1.96L149.55-1.96Q147.42 0.95 143.93 0.95ZM144.91-13.78L144.91-13.78Q142.48-13.81 141.12-11.48L141.12-11.48Q140.07-9.62 140.07-7.21L140.07-7.21Q140.07-4.81 141.36-3.49L141.36-3.49Q142.48-2.37 143.93-2.37L143.93-2.37Q145.66-2.37 146.88-3.62L146.88-3.62Q148.30-5.01 148.37-7.38L148.37-7.38Q148.60-13.78 144.91-13.78ZM175.28-14.80L175.28-14.80Q174.00-9.41 171.93-2.61L171.93-2.61Q171.46-1.12 170.37 0.47L170.37 0.47Q169.80 1.35 168.82 1.32L168.82 1.32Q167.02 1.29 166.01-3.15L166.01-3.15Q165.67-4.57 165.33-7.01L165.33-7.01L164.79-10.70L163.43-7.55L160.93-0.71Q160.69-0.07 160.28 0.24L160.28 0.24Q159.78 1.19 158.69 1.22L158.69 1.22Q157.44 1.29 156.26-3.69L156.26-3.69Q155.68-6.26 155.07-10.63L155.07-10.63L154.66-13.10Q154.46-14.59 154.46-15.61L154.46-15.61Q154.46-16.29 154.95-16.74Q155.44-17.20 156.12-17.20L156.12-17.20Q157.41-17.20 157.68-15.85L157.68-15.85Q157.91-14.86 158.05-13.41L158.05-13.41L158.29-11.00L159.27-3.56Q161.10-8.67 163.06-15.30L163.06-15.30Q163.60-17.13 164.96-17.13L164.96-17.13Q166.28-17.13 166.72-15.10L166.72-15.10Q167.16-13.17 167.80-9.14L167.80-9.14Q168.48-4.98 168.99-2.64L168.99-2.64L170.17-7.14L172.30-16.15Q172.58-17.17 173.73-17.17L173.73-17.17Q174.44-17.17 174.95-16.69Q175.45-16.22 175.45-15.54L175.45-15.54Q175.45-15.47 175.28-14.80Z" transform="translate(-2.2007811892396, 26.612523303728)"/>
            </g>
        </g>
        <g class="tp-slogan iconsvg-slogansvg" fill="#838181" transform="translate(0,43.19000244140625)">
            <rect x="0" height="1" y="5.010000228881836" width="30.529998779296875"/>
            <rect height="1" y="5.010000228881836" width="30.529998779296875" x="142.72000122070312"/>
            <g transform="translate(33.529998779296875,0)">
                <path d="M11.34-6.47Q11.34-6.07 11.30-5.81L11.30-5.81Q11.27-5.45 11.15-5.20L11.15-5.20Q10.86-4.57 10.10-4.57L10.10-4.57L9.76-4.56Q9.54-4.54 9.41-4.55L9.41-4.55Q9.37-4.52 9.30-4.52L9.30-4.52Q9.19-4.52 9.07-4.50L9.07-4.50Q9.01-4.50 8.95-4.49L8.95-4.49L8.72-4.43Q8.66-4.42 8.60-4.42L8.60-4.42Q8.48-4.39 8.38-4.39L8.38-4.39Q7.62-4.39 7.32-5.12L7.32-5.12Q7.21-5.40 7.16-5.81L7.16-5.81Q7.13-6.10 7.13-6.50L7.13-6.50L7.13-6.89Q7.14-7.10 7.19-7.26L7.19-7.26Q7.28-7.68 7.64-7.80L7.64-7.80Q8.05-7.78 8.05-7.18L8.05-7.18Q8.05-7.08 8.04-6.96L8.04-6.96Q8.04-6.91 8.03-6.85L8.03-6.85L8.00-6.64Q7.99-6.58 7.99-6.53L7.99-6.53Q7.98-6.40 7.98-6.30L7.98-6.30Q7.98-5.93 8.08-5.69L8.08-5.69Q8.22-5.35 8.53-5.35L8.53-5.35Q8.64-5.35 8.83-5.40L8.83-5.40Q9.02-5.45 9.12-5.45L9.12-5.45L9.89-5.46Q10.48-5.46 10.48-6.16L10.48-6.16Q10.48-6.44 10.36-6.91L10.36-6.91Q10.21-7.44 10.06-7.60L10.06-7.60Q9.95-7.63 9.85-7.73L9.85-7.73Q9.55-7.85 9.18-7.85L9.18-7.85Q9.07-7.85 8.86-7.78L8.86-7.78Q8.63-7.69 8.51-7.69L8.51-7.69Q8.03-7.69 8.03-8.00L8.03-8.00Q8.03-8.35 8.47-8.50L8.47-8.50Q8.77-8.59 9.22-8.59L9.22-8.59Q9.32-8.59 9.47-8.57L9.47-8.57L9.94-8.44Q10.07-8.41 10.16-8.41L10.16-8.41Q10.58-8.41 10.90-8.00L10.90-8.00Q11.17-7.62 11.18-7.20L11.18-7.20Q11.18-7.07 11.27-6.84L11.27-6.84Q11.34-6.60 11.34-6.47L11.34-6.47ZM6.64-6.44Q6.64-6.04 6.05-6.04L6.05-6.04Q5.94-6.04 5.72-6.08L5.72-6.08Q5.51-6.12 5.39-6.12L5.39-6.12Q4.56-6.12 4.18-5.57L4.18-5.57Q4.14-5.33 4.02-5.16L4.02-5.16L3.86-5.10Q3.72-5.11 3.64-5.28L3.64-5.28Q3.56-5.41 3.55-5.58L3.55-5.58Q3.44-5.69 3.34-5.75L3.34-5.75Q3.06-5.75 2.86-5.69L2.86-5.69Q2.71-5.65 2.54-5.54L2.54-5.54L2.41-5.47Q2.33-5.42 2.26-5.40L2.26-5.40Q2.09-5.32 1.87-5.30L1.87-5.30Q1.70-5.21 1.51-5.21L1.51-5.21Q1.04-5.21 1.04-5.64L1.04-5.64Q1.04-5.92 1.44-6.16L1.44-6.16Q1.79-6.38 2.08-6.38L2.08-6.38Q2.22-6.38 2.48-6.46L2.48-6.46Q2.75-6.52 2.88-6.52L2.88-6.52Q3.28-6.52 3.62-7.00L3.62-7.00L3.61-7.52Q3.61-7.79 3.68-8.04L3.68-8.04L3.12-8.00Q2.76-7.97 2.59-8.04L2.59-8.04Q2.51-7.97 2.38-7.91L2.38-7.91L2.16-7.81Q2.12-7.76 2.10-7.70L2.10-7.70L1.93-7.32Q1.78-7.02 1.51-7.02L1.51-7.02Q1.33-7.02 1.33-7.25L1.33-7.25Q1.33-7.38 1.37-7.54L1.37-7.54L1.50-8.08Q1.52-8.23 1.52-8.35L1.52-8.35Q1.52-8.50 1.61-8.70L1.61-8.70Q1.66-8.82 1.69-9.07L1.69-9.07L1.76-9.46Q1.90-9.88 2.32-9.88L2.32-9.88Q2.72-9.88 2.72-9.36L2.72-9.36Q2.72-9.25 2.69-9.11L2.69-9.11L2.62-8.84L2.74-8.72L2.75-8.66Q2.98-8.70 3.42-8.80L3.42-8.80L5.09-9.16Q5.50-9.23 5.69-9.23L5.69-9.23Q6-9.23 6.19-9.13L6.19-9.13Q6.44-9 6.44-8.71L6.44-8.71Q6.44-8.46 6.19-8.30L6.19-8.30Q5.99-8.18 5.72-8.18L5.72-8.18Q5.62-8.18 5.47-8.20L5.47-8.20L5.21-8.23Q5.09-8.24 4.91-8.18L4.91-8.18Q4.70-8.11 4.61-8.11L4.61-8.11L4.43-8.11Q4.54-7.94 4.54-7.66L4.54-7.66Q4.54-7.60 4.52-7.52L4.52-7.52L4.46-7.27Q4.45-7.20 4.45-7.14L4.45-7.14L4.45-7.09L4.62-6.94Q4.98-7.02 5.57-7.02L5.57-7.02L5.92-7.02Q6.12-7.01 6.26-6.96L6.26-6.96Q6.64-6.84 6.64-6.44L6.64-6.44ZM6.49-4.22Q6.49-4.06 6.34-4.02L6.34-4.02Q6.28-4.00 6.19-4.00L6.19-4.00L6.05-4.00Q5.78-4.00 5.24-4.32L5.24-4.32Q4.68-4.67 4.68-4.91L4.68-4.91Q4.68-5.40 5.06-5.40L5.06-5.40Q5.39-5.40 5.93-4.98L5.93-4.98Q6.49-4.54 6.49-4.22L6.49-4.22ZM10.07-0.88Q10.07-0.64 9.97-0.44L9.97-0.44Q9.88-0.26 9.84-0.10L9.84-0.10Q9.77 0.31 9.28 0.53L9.28 0.53Q8.87 0.71 8.39 0.71L8.39 0.71Q8.20 0.71 7.97 0.67L7.97 0.67L7.57 0.60Q7.30 0.54 7.16 0.53L7.16 0.53Q6.94 0.49 6.74 0.49L6.74 0.49Q6.61 0.49 6.36 0.53L6.36 0.53Q6.11 0.58 5.98 0.58L5.98 0.58Q5.84 0.58 5.60 0.62L5.60 0.62Q5.38 0.67 5.27 0.67L5.27 0.67L5.05 0.68L4.74 0.73Q4.56 0.76 4.43 0.79L4.43 0.79Q4.28 0.82 4.24 0.84L4.24 0.84Q3.89 0.82 3.58 0.36L3.58 0.36Q3.29-0.07 3.29-0.43L3.29-0.43Q3.29-0.61 3.32-0.95L3.32-0.95Q3.37-1.36 3.44-1.70L3.44-1.70Q3.65-2.69 3.96-2.69L3.96-2.69Q4.37-2.69 4.34-2.10L4.34-2.10Q4.46-1.98 4.58-1.82L4.58-1.82Q4.66-1.74 4.70-1.67L4.70-1.67Q4.76-1.60 4.78-1.55L4.78-1.55Q4.78-1.42 4.54-1.20L4.54-1.20L4.36-1.02Q4.25-0.92 4.21-0.83L4.21-0.83Q4.20-0.76 4.20-0.70L4.20-0.70Q4.19-0.61 4.19-0.55L4.19-0.55Q4.19-0.26 4.44-0.13L4.44-0.13L4.62-0.11Q4.72-0.11 4.84-0.12L4.84-0.12L5.27-0.19Q5.39-0.20 5.48-0.20L5.48-0.20Q5.62-0.20 5.77-0.23L5.77-0.23L6.32-0.32Q6.48-0.35 6.61-0.35L6.61-0.35Q6.72-0.35 6.91-0.32L6.91-0.32Q7.12-0.29 7.21-0.29L7.21-0.29L8.27-0.24Q9.05-0.24 9.05-0.92L9.05-0.92L9.05-1.20Q9.05-1.36 9.04-1.49L9.04-1.49Q9.01-1.84 8.94-2.08L8.94-2.08Q8.75-2.72 8.18-2.83L8.18-2.83Q7.63-2.94 7.24-2.99L7.24-2.99Q6.73-3.05 6.28-3.05L6.28-3.05Q6.02-3.05 5.75-3L5.75-3Q5.56-2.96 5.32-2.89L5.32-2.89Q5.28-2.87 5.22-2.86L5.22-2.86L4.98-2.77Q4.81-2.72 4.73-2.72L4.73-2.72Q4.40-2.72 4.40-3.06L4.40-3.06Q4.40-3.53 5.20-3.72L5.20-3.72Q5.47-3.78 5.84-3.80L5.84-3.80L6.13-3.83L6.35-3.83Q6.54-3.83 6.79-3.80L6.79-3.80L7.44-3.70Q7.56-3.67 7.66-3.67L7.66-3.67Q7.90-3.64 8.09-3.64L8.09-3.64Q8.86-3.64 9.37-3.13L9.37-3.13Q9.89-2.62 9.89-1.84L9.89-1.84Q9.89-1.73 9.91-1.60L9.91-1.60L10.04-1.12Q10.07-0.98 10.07-0.88L10.07-0.88ZM7.91-1.64Q7.91-1.36 7.32-1.21L7.32-1.21Q7.10-1.16 6.84-1.14L6.84-1.14L6.49-1.13Q6.19-1.13 5.74-1.24L5.74-1.24Q5.14-1.38 5.14-1.57L5.14-1.57Q5.14-1.72 5.38-1.86L5.38-1.86Q5.60-1.99 5.76-1.99L5.76-1.99Q5.89-1.99 6.16-2.06L6.16-2.06Q6.41-2.14 6.55-2.14L6.55-2.14Q6.84-2.14 7.32-2.00L7.32-2.00Q7.91-1.85 7.91-1.64L7.91-1.64ZM3.80-4.51Q3.80-3.86 3.05-3.19L3.05-3.19Q2.32-2.56 1.64-2.50L1.64-2.50Q1.52-2.42 1.37-2.42L1.37-2.42Q1.19-2.42 1.01-2.51L1.01-2.51Q0.79-2.62 0.79-2.78L0.79-2.78L0.74-2.90Q0.71-2.99 0.71-3.04L0.71-3.04Q0.71-3.38 1.20-3.54L1.20-3.54Q1.39-3.60 1.62-3.62L1.62-3.62L1.82-3.65L1.98-3.65Q2.36-3.65 2.66-3.82L2.66-3.82Q2.88-3.94 3.07-4.18L3.07-4.18L3.35-4.54Q3.48-4.70 3.59-4.70L3.59-4.70Q3.80-4.70 3.80-4.51L3.80-4.51ZM22.43-8.23Q22.43-7.94 22.03-7.79L22.03-7.79Q21.73-7.67 21.37-7.67L21.37-7.67L21.26-7.67Q21.18-7.67 21.12-7.68L21.12-7.68Q20.93-7.68 20.80-7.72L20.80-7.72Q20.39-7.80 20.39-8.05L20.39-8.05Q20.39-8.30 20.89-8.50L20.89-8.50Q21.30-8.65 21.60-8.65L21.60-8.65L22.07-8.65Q22.21-8.65 22.32-8.51L22.32-8.51Q22.43-8.38 22.43-8.23L22.43-8.23ZM22.85-5.95L22.86-5.77Q22.87-5.47 22.57-5.29L22.57-5.29Q22.32-5.14 22.00-5.14L22.00-5.14Q21.90-5.14 21.79-5.15L21.79-5.15L21.59-5.16Q21.32-5.20 21.18-5.18L21.18-5.18Q21.11-5.18 21.04-5.20L21.04-5.20Q20.99-5.21 20.92-5.24L20.92-5.24Q20.87-5.27 20.84-5.27L20.84-5.27L20.78-5.29Q20.71-5.32 20.64-5.32L20.64-5.32Q20.53-5.32 20.34-5.38L20.34-5.38Q20.15-5.44 20.03-5.44L20.03-5.44Q19.54-5.44 19.18-5.88L19.18-5.88Q18.84-6.29 18.84-6.82L18.84-6.82Q18.84-6.92 18.85-7.06L18.85-7.06L18.94-7.52Q18.95-7.66 18.95-7.76L18.95-7.76Q18.95-7.98 18.91-8.23L18.91-8.23Q18.88-8.57 18.80-8.69L18.80-8.69L18.80-8.76Q18.80-9.30 19.13-9.44L19.13-9.44Q19.21-9.54 19.36-9.54L19.36-9.54Q19.93-9.54 19.93-8.88L19.93-8.88Q19.93-8.76 19.91-8.62L19.91-8.62L19.78-8.09Q19.75-7.94 19.75-7.82L19.75-7.82Q19.75-7.72 19.74-7.58L19.74-7.58Q19.74-7.52 19.73-7.45L19.73-7.45L19.69-7.09Q19.68-6.96 19.68-6.85L19.68-6.85Q19.68-6.38 20.11-6.02L20.11-6.02L20.21-6Q20.28-5.98 20.30-5.98L20.30-5.98Q20.42-5.98 20.58-6L20.58-6Q20.64-6 20.71-6.01L20.71-6.01L20.92-6.05Q20.95-6.05 20.99-6.06L20.99-6.06Q21.06-6.07 21.12-6.07L21.12-6.07Q21.26-6.10 21.38-6.10L21.38-6.10Q21.52-6.10 21.65-6.13L21.65-6.13L21.77-6.16L21.98-6.24L22.09-6.26Q22.22-6.30 22.34-6.30L22.34-6.30L22.43-6.30Q22.50-6.24 22.56-6.22L22.56-6.22Q22.57-6.20 22.61-6.19L22.61-6.19Q22.63-6.19 22.64-6.18L22.64-6.18L22.72-6.12Q22.76-6.07 22.85-5.95L22.85-5.95ZM22.97-3.52Q22.97-2.96 22.46-2.74L22.46-2.74Q22.30-2.65 22.00-2.58L22.00-2.58L21.52-2.46Q21.40-2.36 21.29-2.35L21.29-2.35Q21.08-2.21 20.66-2.21L20.66-2.21Q20.48-2.21 20.32-2.28L20.32-2.28Q20.10-2.38 20.10-2.53L20.10-2.53Q20.10-2.65 20.23-2.72L20.23-2.72L20.34-2.77Q20.39-2.80 20.46-2.81L20.46-2.81Q20.51-2.80 20.60-2.82L20.60-2.82L20.78-2.89Q20.96-2.98 21.07-3.06L21.07-3.06Q21.23-3.11 21.46-3.26L21.46-3.26Q21.55-3.32 21.66-3.42L21.66-3.42L22.04-3.73Q22.15-3.80 22.21-3.86L22.21-3.86Q22.39-3.98 22.49-3.98L22.49-3.98Q22.97-3.98 22.97-3.52L22.97-3.52ZM18.50-6.55Q18.50-6.11 18.12-6.11L18.12-6.11Q17.86-6.11 17.66-6.49L17.66-6.49Q17.46-6.88 17.22-6.88L17.22-6.88Q17.03-6.59 16.37-6.30L16.37-6.30Q15.74-6.04 15.34-6.04L15.34-6.04Q15.23-6.04 15.01-6.11L15.01-6.11Q14.80-6.17 14.68-6.17L14.68-6.17Q14.62-6.17 14.53-6.16L14.53-6.16L14.47-6.14Q14.42-6.14 14.40-6.13L14.40-6.13Q14.33-6.12 14.27-6.12L14.27-6.12Q14.20-6.12 14.12-6.13L14.12-6.13Q13.91-6.17 13.46-6.56L13.46-6.56Q13.01-6.96 13.01-7.18L13.01-7.18Q13.01-7.51 13.45-7.79L13.45-7.79Q13.51-7.86 13.60-7.90L13.60-7.90L13.75-7.94Q13.97-8.02 14.09-8.29L14.09-8.29Q14.12-8.36 14.32-8.62L14.32-8.62L14.74-9.13Q14.98-9.42 15.16-9.61L15.16-9.61Q15.36-9.83 15.40-9.83L15.40-9.83L15.54-9.85Q16.06-9.85 16.06-9.41L16.06-9.41Q16.06-9.35 16.04-9.28L16.04-9.28Q16.04-9.22 16.03-9.14L16.03-9.14Q15.95-9.06 15.86-8.89L15.86-8.89Q15.76-8.71 15.48-8.56L15.48-8.56L14.95-8.32Q14.64-8.16 14.50-7.97L14.50-7.97Q14.29-7.72 14.29-7.32L14.29-7.32Q14.29-7.27 14.32-7.20L14.32-7.20Q14.41-7.09 14.58-6.98L14.58-6.98Q14.78-6.86 14.92-6.86L14.92-6.86Q15.17-6.86 15.48-6.92L15.48-6.92Q15.68-6.96 16.01-7.06L16.01-7.06L16.50-7.19Q16.75-7.25 16.93-7.25L16.93-7.25L16.98-7.25Q17.02-7.32 17.02-7.40L17.02-7.40Q17.02-7.52 16.82-7.79L16.82-7.79Q16.62-8.05 16.62-8.15L16.62-8.15Q16.62-8.24 16.72-8.35L16.72-8.35Q16.81-8.46 16.90-8.46L16.90-8.46Q16.97-8.46 17.05-8.41L17.05-8.41L17.21-8.33Q17.42-8.29 17.71-7.97L17.71-7.97L17.76-7.90L17.93-7.72Q18.05-7.60 18.14-7.55L18.14-7.55Q18.22-7.48 18.24-7.36L18.24-7.36L18.36-7.19Q18.37-7.13 18.41-7.03L18.41-7.03L18.42-7.00Q18.42-6.96 18.43-6.95L18.43-6.95L18.46-6.88Q18.50-6.67 18.50-6.55L18.50-6.55ZM23.22-0.38Q23.22-0.02 22.91 0.32L22.91 0.32Q22.57 0.68 22.22 0.68L22.22 0.68Q22.12 0.68 21.91 0.64L21.91 0.64Q21.70 0.60 21.59 0.60L21.59 0.60Q21.40 0.60 21.10 0.53L21.10 0.53Q20.87 0.48 20.57 0.37L20.57 0.37L20.11 0.23Q19.90 0.16 19.85 0.16L19.85 0.16L19.74 0.19Q19.68 0.22 19.64 0.22L19.64 0.22Q19.55 0.25 19.46 0.25L19.46 0.25Q19.03 0.25 18.73-0.26L18.73-0.26Q18.46-0.71 18.46-1.16L18.46-1.16Q18.46-1.28 18.48-1.45L18.48-1.45L18.58-2.03Q18.60-2.18 18.60-2.30L18.60-2.30Q18.60-2.36 18.61-2.45L18.61-2.45L18.68-2.71Q18.70-2.80 18.70-2.86L18.70-2.86Q18.70-3 18.76-3.26L18.76-3.26Q18.82-3.53 18.82-3.66L18.82-3.66L18.79-4.08Q18.79-4.15 18.80-4.21L18.80-4.21Q18.84-4.50 19.21-4.50L19.21-4.50Q19.76-4.50 19.76-3.92L19.76-3.92Q19.76-3.77 19.68-3.48L19.68-3.48L19.62-3.25Q19.58-3.12 19.57-3.02L19.57-3.02L19.82-2.52Q19.82-2.50 19.76-2.39L19.76-2.39Q19.72-2.30 19.62-2.18L19.62-2.18Q19.45-1.92 19.38-1.84L19.38-1.84L19.38-1.37Q19.39-1.15 19.43-0.98L19.43-0.98Q19.54-0.55 19.84-0.46L19.84-0.46Q19.90-0.41 20.15-0.37L20.15-0.37Q20.34-0.35 20.66-0.35L20.66-0.35Q20.90-0.34 21.22-0.34L21.22-0.34L21.60-0.34Q22.04-0.34 22.26-0.50L22.26-0.50Q22.33-0.65 22.33-0.82L22.33-0.82Q22.33-0.88 22.32-0.96L22.32-0.96L22.25-1.22Q22.24-1.30 22.24-1.36L22.24-1.36Q22.24-1.70 22.60-1.70L22.60-1.70Q22.90-1.70 23.08-1.16L23.08-1.16Q23.15-0.96 23.18-0.73L23.18-0.73Q23.22-0.53 23.22-0.38L23.22-0.38ZM17.83-4.36Q17.83-4.25 17.80-4.12L17.80-4.12L17.69-3.77Q17.66-3.71 17.65-3.65L17.65-3.65Q17.62-3.53 17.62-3.42L17.62-3.42Q17.62-3.30 17.60-3.16L17.60-3.16L17.54-2.62Q17.53-2.47 17.53-2.35L17.53-2.35Q17.53-2.16 17.57-1.93L17.57-1.93Q17.57-1.84 17.59-1.72L17.59-1.72L17.70-1.06Q17.72-0.82 17.72-0.61L17.72-0.61L17.71-0.29Q17.69-0.05 17.64 0.13L17.64 0.13Q17.51 0.67 17.23 0.67L17.23 0.67Q16.96 0.67 16.85 0.24L16.85 0.24Q16.81 0.10 16.80-0.11L16.80-0.11Q16.79-0.18 16.79-0.26L16.79-0.26L16.79-0.40Q16.79-0.53 16.81-0.79L16.81-0.79L16.64-0.90L16.36-0.96Q16.19-1.00 16.07-1.00L16.07-1.00Q15.96-1.00 15.83-0.98L15.83-0.98L15.34-0.90Q15.20-0.89 15.10-0.89L15.10-0.89Q14.63-0.89 14.36-0.79L14.36-0.79L14.23-0.67Q14.12-0.59 14.12-0.58L14.12-0.58Q14.06-0.46 13.97-0.18L13.97-0.18L13.93-0.07Q13.92 0 13.90 0.05L13.90 0.05Q13.86 0.17 13.81 0.26L13.81 0.26Q13.58 0.77 13.15 0.77L13.15 0.77Q12.61 0.77 12.61 0.22L12.61 0.22Q12.61-0.10 12.91-0.41L12.91-0.41L13.13-0.62Q13.22-0.74 13.24-0.83L13.24-0.83L13.45-1.20L13.62-1.58Q13.69-1.78 13.76-2.02L13.76-2.02Q13.85-2.27 13.90-2.46L13.90-2.46Q13.96-2.66 13.96-2.72L13.96-2.72Q13.96-3.30 13.88-3.67L13.88-3.67Q13.86-3.78 13.81-3.86L13.81-3.86Q13.80-3.90 13.78-3.94L13.78-3.94L13.73-4.01Q13.62-4.19 13.62-4.45L13.62-4.45Q13.62-4.78 13.79-5.12L13.79-5.12Q13.99-5.54 14.28-5.54L14.28-5.54Q14.44-5.54 14.53-5.46L14.53-5.46L14.62-5.33Q15.49-5.68 16.24-5.68L16.24-5.68Q16.82-5.68 17.30-5.32L17.30-5.32Q17.83-4.93 17.83-4.36L17.83-4.36ZM16.92-2.68L16.91-3.26Q16.87-3.67 16.80-3.97L16.80-3.97Q16.60-4.81 16.04-4.81L16.04-4.81L15.68-4.81Q15.46-4.81 15.29-4.80L15.29-4.80Q14.80-4.76 14.56-4.66L14.56-4.66L14.47-4.45Q14.41-4.31 14.41-4.25L14.41-4.25Q14.41-4.10 14.46-3.94L14.46-3.94L14.54-3.64L14.75-3.55Q14.86-3.50 14.92-3.43L14.92-3.43Q15.05-3.46 15.24-3.47L15.24-3.47Q15.48-3.49 15.68-3.48L15.68-3.48Q16.24-3.46 16.36-3.25L16.36-3.25L16.37-3.17Q16.38-3.12 16.38-3.08L16.38-3.08Q16.38-2.68 15.83-2.68L15.83-2.68L15.38-2.69Q15.17-2.69 14.94-2.64L14.94-2.64Q14.75-2.45 14.58-2.34L14.58-2.34L14.52-2.04L14.44-1.74Q14.47-1.72 14.50-1.67L14.50-1.67Q14.52-1.64 14.54-1.60L14.54-1.60L14.59-1.60Q14.82-1.60 15.12-1.63L15.12-1.63L15.91-1.75L16.18-1.78Q16.48-1.81 16.70-1.80L16.70-1.80L16.87-1.93Q16.92-2.39 16.92-2.68L16.92-2.68ZM35.41-7.97Q35.41-7.43 34.68-7.43L34.68-7.43Q34.49-7.43 34.26-7.50L34.26-7.50Q34.18-7.52 34.06-7.57L34.06-7.57Q34.02-7.60 33.96-7.62L33.96-7.62L33.85-7.66Q33.59-7.78 33.44-7.81L33.44-7.81Q33.20-7.90 32.99-7.90L32.99-7.90Q32.87-7.90 32.72-7.93L32.72-7.93L32.59-7.96Q32.56-7.96 32.52-7.97L32.52-7.97L32.20-8.04Q32.05-8.06 31.94-8.06L31.94-8.06L30.80-8.11Q30.48-8.11 30.08-8.09L30.08-8.09L28.63-7.96Q28.24-7.92 27.91-7.92L27.91-7.92Q27.68-7.92 27.52-7.98L27.52-7.98Q27.28-8.06 27.28-8.23L27.28-8.23Q27.28-8.54 27.95-8.72L27.95-8.72Q28.19-8.78 28.49-8.82L28.49-8.82Q28.73-8.84 28.88-8.84L28.88-8.84L29.15-8.95Q29.29-9.02 29.39-9.10L29.39-9.10Q29.27-9.30 29.27-9.49L29.27-9.49Q29.27-10.14 30-10.14L30-10.14Q30.20-10.14 30.41-10.01L30.41-10.01Q30.62-9.85 30.62-9.66L30.62-9.66Q30.62-9.62 30.64-9.58L30.64-9.58L30.66-9.50Q30.68-9.44 30.68-9.42L30.68-9.42Q30.70-9.38 30.70-9.35L30.70-9.35Q30.70-9.31 30.67-9.26L30.67-9.26L30.62-9.19L30.90-9.05Q31.06-8.95 31.18-8.90L31.18-8.90Q31.60-8.95 32.00-8.92L32.00-8.92Q32.29-8.89 32.66-8.82L32.66-8.82L32.82-8.78Q32.84-8.77 32.89-8.77L32.89-8.77L33.26-8.69Q33.61-8.63 33.89-8.63L33.89-8.63L34.32-8.63Q34.61-8.62 34.82-8.57L34.82-8.57Q35.41-8.44 35.41-7.97L35.41-7.97ZM33.04-6.77L32.76-5.33Q32.70-5.17 32.46-5.14L32.46-5.14Q32.38-5.11 32.26-5.11L32.26-5.11L32.08-5.11Q31.96-5.11 31.81-5.12L31.81-5.12L31.31-5.17Q31.16-5.18 31.04-5.18L31.04-5.18Q30.80-5.18 30.35-5.12L30.35-5.12Q29.89-5.05 29.68-5.05L29.68-5.05Q29.47-5.05 29.22-5.00L29.22-5.00Q29.11-4.99 28.99-4.96L28.99-4.96L28.52-4.85Q28.39-4.81 28.30-4.80L28.30-4.80Q28.04-4.75 27.85-4.75L27.85-4.75Q27.65-4.75 27.44-4.85L27.44-4.85Q27.22-4.96 27.18-5.14L27.18-5.14Q27.06-5.26 27.06-5.39L27.06-5.39Q27.06-5.51 27.04-5.71L27.04-5.71Q27-5.92 27-6.01L27-6.01Q27-6.85 27.26-7.09L27.26-7.09Q27.50-7.32 28.34-7.31L28.34-7.31L29.92-7.34L30.12-7.30Q30.53-7.39 30.77-7.39L30.77-7.39Q30.86-7.39 31.00-7.37L31.00-7.37L31.27-7.33L31.42-7.36Q31.52-7.36 31.61-7.33L31.61-7.33Q32.05-7.44 32.48-7.34L32.48-7.34Q33.04-7.21 33.04-6.77L33.04-6.77ZM27.01-8.10Q27.01-7.80 26.22-7.58L26.22-7.58Q25.94-7.51 25.61-7.46L25.61-7.46Q25.33-7.43 25.18-7.43L25.18-7.43Q24.60-7.43 24.60-7.92L24.60-7.92Q24.60-8.57 25.33-8.57L25.33-8.57Q25.39-8.57 25.48-8.56L25.48-8.56L25.73-8.48Q25.81-8.47 25.87-8.47L25.87-8.47L26.17-8.48Q26.40-8.48 26.56-8.47L26.56-8.47Q27.01-8.40 27.01-8.10L27.01-8.10ZM34.94-0.74L34.94-0.34Q34.94-0.07 34.91 0.10L34.91 0.10Q34.79 0.60 34.36 0.60L34.36 0.60Q34.07 0.60 33.95 0.19L33.95 0.19Q33.91 0.05 33.89-0.14L33.89-0.14Q33.88-0.23 33.88-0.30L33.88-0.30L33.88-0.43Q33.88-0.62 33.94-1.01L33.94-1.01Q33.98-1.38 33.98-1.58L33.98-1.58Q33.98-2.60 33.34-3.22L33.34-3.22Q33.24-3.31 32.93-3.37L32.93-3.37L32.66-3.43Q32.53-3.47 32.44-3.52L32.44-3.52Q32.27-3.60 32.15-3.60L32.15-3.60Q32.04-3.60 31.92-3.58L31.92-3.58L31.45-3.46Q31.32-3.43 31.21-3.43L31.21-3.43Q31.08-3.43 30.80-3.41L30.80-3.41Q30.54-3.37 30.40-3.37L30.40-3.37L29.00-3.37Q28.88-3.37 28.75-3.38L28.75-3.38Q28.58-3.41 28.45-3.44L28.45-3.44Q28.09-3.56 28.09-3.80L28.09-3.80Q28.09-4.14 28.61-4.26L28.61-4.26Q28.79-4.30 29.03-4.31L29.03-4.31Q29.12-4.32 29.22-4.32L29.22-4.32L29.38-4.32Q29.58-4.32 30.01-4.36L30.01-4.36Q30.43-4.38 30.65-4.38L30.65-4.38Q30.98-4.38 31.51-4.25L31.51-4.25L31.69-4.19L31.86-4.15Q32.04-4.10 32.11-4.10L32.11-4.10Q32.24-4.10 32.51-4.16L32.51-4.16Q32.77-4.22 32.92-4.22L32.92-4.22Q33.77-4.22 34.33-3.48L34.33-3.48Q34.85-2.80 34.85-1.92L34.85-1.92Q34.85-1.73 34.90-1.33L34.90-1.33Q34.94-0.95 34.94-0.74L34.94-0.74ZM32.89-2.11Q32.89-2.02 32.87-1.90L32.87-1.90L32.76-1.45Q32.74-1.32 32.74-1.22L32.74-1.22Q32.74-0.32 31.97-0.32L31.97-0.32Q31.84-0.32 31.67-0.34L31.67-0.34Q31.61-0.34 31.52-0.35L31.52-0.35L31.38-0.36Q31.01-0.38 30.79-0.37L30.79-0.37L30.40-0.31Q30.36-0.31 30.34-0.30L30.34-0.30Q30.04-0.25 29.88-0.25L29.88-0.25Q29.70-0.25 29.47-0.20L29.47-0.20Q29.33-0.18 29.06-0.11L29.06-0.11Q28.79-0.04 28.64-0.01L28.64-0.01Q28.43 0.04 28.25 0.04L28.25 0.04Q28.04 0.04 27.83-0.06L27.83-0.06Q27.59-0.17 27.55-0.34L27.55-0.34Q27.43-0.48 27.43-0.61L27.43-0.61Q27.43-0.97 27.36-1.13L27.36-1.13L27.35-1.28Q27.34-1.40 27.38-1.62L27.38-1.62Q27.43-1.84 27.43-1.94L27.43-1.94Q27.43-2.69 28.24-2.69L28.24-2.69L28.90-2.66L29.90-2.69Q29.95-2.69 30.01-2.68L30.01-2.68Q30.16-2.66 30.28-2.64L30.28-2.64Q30.61-2.57 30.61-2.41L30.61-2.41Q30.61-2.20 30.24-2.11L30.24-2.11Q30.10-2.08 29.86-2.05L29.86-2.05L29.42-2.02Q28.86-1.97 28.64-1.90L28.64-1.90Q28.31-1.78 28.36-1.52L28.36-1.52L28.33-1.28Q28.33-0.72 28.75-0.72L28.75-0.72Q28.96-0.72 29.23-0.77L29.23-0.77Q29.33-0.78 29.47-0.82L29.47-0.82L29.95-0.92Q30.08-0.96 30.19-0.97L30.19-0.97Q30.47-1.02 30.68-1.02L30.68-1.02L31.15-1.02Q31.43-1.02 31.58-1.08L31.58-1.08Q31.99-1.22 31.87-1.81L31.87-1.81L31.91-1.92Q31.91-2.02 31.81-2.09L31.81-2.09L31.58-2.10Q31.54-2.10 31.50-2.11L31.50-2.11Q31.44-2.11 31.39-2.12L31.39-2.12Q31.25-2.14 31.14-2.17L31.14-2.17Q30.84-2.27 30.84-2.46L30.84-2.46Q30.84-2.60 31.15-2.66L31.15-2.66Q31.26-2.69 31.39-2.70L31.39-2.70Q31.50-2.70 31.57-2.69L31.57-2.69Q31.73-2.75 32.03-2.75L32.03-2.75Q32.32-2.75 32.59-2.58L32.59-2.58Q32.89-2.38 32.89-2.11L32.89-2.11ZM27.86-3.76Q27.86-3.55 27.60-3.44L27.60-3.44Q27.40-3.36 27.17-3.36L27.17-3.36Q26.51-3.36 26.26-2.56L26.26-2.56Q26.16-2.26 26.12-1.85L26.12-1.85L26.10-1.50L26.10-1.19Q26.10-1.06 26.09-0.90L26.09-0.90L26.05-0.35Q26.04-0.19 26.04-0.07L26.04-0.07Q26.04 0.13 25.92 0.34L25.92 0.34Q25.79 0.56 25.60 0.56L25.60 0.56Q25.33 0.56 25.21 0.34L25.21 0.34Q25.12 0.16 25.12-0.13L25.12-0.13L25.09-0.72Q25.09-0.95 25.18-1.40L25.18-1.40Q25.26-1.87 25.26-2.11L25.26-2.11Q25.26-2.23 25.22-2.46L25.22-2.46Q25.18-2.70 25.18-2.81L25.18-2.81Q25.18-3.23 25.64-3.68L25.64-3.68Q26.11-4.14 26.53-4.13L26.53-4.13L27.25-4.14Q27.48-4.14 27.65-4.06L27.65-4.06Q27.86-3.96 27.86-3.76L27.86-3.76ZM32.15-6.28L32.11-6.66L31.45-6.60Q31.04-6.56 30.79-6.56L30.79-6.56Q30.68-6.56 30.56-6.59L30.56-6.59L30.44-6.60L30.23-6.66Q30.17-6.67 30.12-6.67L30.12-6.67Q29.99-6.70 29.89-6.70L29.89-6.70Q29.66-6.70 29.20-6.65L29.20-6.65Q28.73-6.59 28.49-6.59L28.49-6.59L28.28-6.59Q28.16-6.58 28.08-6.55L28.08-6.55Q27.88-6.48 27.91-6.24L27.91-6.24L27.88-5.98Q27.88-5.50 28.27-5.50L28.27-5.50Q28.60-5.50 29.20-5.63L29.20-5.63L29.65-5.74Q29.92-5.78 30.11-5.81L30.11-5.81Q30.44-5.84 30.95-5.84L30.95-5.84L31.78-5.84Q32.15-5.84 32.15-6.28L32.15-6.28ZM46.73-7.09Q46.73-6.65 46.14-6.65L46.14-6.65Q46.04-6.65 45.92-6.67L45.92-6.67L45.49-6.79Q45.37-6.82 45.28-6.82L45.28-6.82Q45.22-6.82 45.13-6.80L45.13-6.80L44.93-6.77Q44.89-6.76 44.86-6.76L44.86-6.76Q44.78-6.74 44.72-6.74L44.72-6.74L44.29-6.74Q44.04-6.73 43.85-6.68L43.85-6.68Q43.82-6.65 43.78-6.61L43.78-6.61L43.61-6.47Q43.56-6.43 43.54-6.40L43.54-6.40Q43.45-6.18 43.18-5.93L43.18-5.93Q42.88-5.65 42.66-5.65L42.66-5.65Q42.43-5.65 42.43-5.88L42.43-5.88L42.89-6.94Q43.08-7.43 43.19-7.80L43.19-7.80Q43.33-8.28 43.33-8.56L43.33-8.56L43.31-8.88Q43.28-9.10 43.31-9.23L43.31-9.23Q43.36-9.60 43.78-9.60L43.78-9.60Q44.03-9.60 44.17-9.32L44.17-9.32Q44.29-9.08 44.29-8.82L44.29-8.82Q44.29-8.58 44.18-8.29L44.18-8.29L44.12-8.15Q44.12-8.12 44.11-8.11L44.11-8.11L44.00-7.80L44.06-7.69Q44.10-7.62 44.10-7.57L44.10-7.57L45.60-7.66L46.02-7.66Q46.27-7.66 46.49-7.50L46.49-7.50Q46.73-7.33 46.73-7.09L46.73-7.09ZM41.82-7.42Q41.82-7.14 41.57-7.00L41.57-7.00Q41.35-6.88 41.06-6.88L41.06-6.88Q40.92-6.88 40.64-6.95L40.64-6.95Q40.37-7.01 40.24-7.01L40.24-7.01Q40.14-7.01 40.01-7.00L40.01-7.00L39.54-6.92Q39.41-6.91 39.31-6.91L39.31-6.91Q39.20-6.91 39-6.88L39-6.88Q38.80-6.84 38.70-6.84L38.70-6.84Q38.48-6.84 38.08-6.77L38.08-6.77Q37.67-6.68 37.46-6.68L37.46-6.68Q36.82-6.68 36.82-7.26L36.82-7.26Q36.82-7.78 37.43-7.78L37.43-7.78Q37.76-7.78 38.15-7.79L38.15-7.79L38.87-7.82Q39.06-7.93 39.17-8.06L39.17-8.06Q39.14-8.14 39.07-8.24L39.07-8.24L39.05-8.29Q39.05-8.30 39.04-8.32L39.04-8.32L39.02-8.34Q38.99-8.40 38.98-8.44L38.98-8.44Q38.84-8.66 38.84-8.81L38.84-8.81Q38.84-9.06 39.04-9.28L39.04-9.28Q39.23-9.49 39.47-9.49L39.47-9.49Q39.92-9.49 39.97-9.02L39.97-9.02Q40.04-8.90 40.04-8.72L40.04-8.72Q40.04-8.50 39.94-8.22L39.94-8.22Q40.14-8.06 40.39-7.93L40.39-7.93Q40.72-8.00 41.04-8.00L41.04-8.00Q41.33-8.00 41.56-7.86L41.56-7.86Q41.82-7.68 41.82-7.42L41.82-7.42ZM47.35-0.10Q47.35 0.35 46.82 0.35L46.82 0.35Q46.58 0.35 46.31 0.16L46.31 0.16Q46.13 0.02 45.95-0.06L45.95-0.06Q45.92-0.08 45.88-0.10L45.88-0.10Q45.86-0.11 45.85-0.11L45.85-0.11Q45.84-0.12 45.83-0.12L45.83-0.12L45.55-0.26L45.41-0.40Q45.25-0.55 45.04-0.84L45.04-0.84Q44.86-1.09 44.70-1.19L44.70-1.19L44.46-1.20L43.21-0.23Q43.01-0.06 43.00-0.04L43.00-0.04Q42.76 0.13 42.44 0.13L42.44 0.13Q41.89 0.13 41.89-0.29L41.89-0.29Q41.89-0.59 42.10-0.76L42.10-0.76Q42.23-0.88 42.58-1.02L42.58-1.02L42.89-1.14Q43.07-1.21 43.20-1.30L43.20-1.30Q43.57-1.49 43.80-1.79L43.80-1.79L43.80-2.04Q43.79-2.18 43.76-2.30L43.76-2.30Q43.33-2.58 43.12-3.20L43.12-3.20Q43.03-3.42 42.95-3.76L42.95-3.76L42.83-4.31Q42.88-4.57 43.07-4.57L43.07-4.57Q43.12-4.57 43.19-4.49L43.19-4.49Q43.26-4.42 43.33-4.28L43.33-4.28Q43.48-4.02 43.49-3.90L43.49-3.90Q43.63-3.65 43.82-3.37L43.82-3.37Q43.98-3.14 44.21-2.84L44.21-2.84L44.50-2.90L44.59-3.13Q44.64-3.26 44.64-3.36L44.64-3.36Q44.64-3.54 44.63-3.79L44.63-3.79L44.54-4.69L44.53-5.05Q44.53-5.68 45.11-5.68L45.11-5.68Q45.36-5.68 45.50-5.40L45.50-5.40Q45.62-5.18 45.62-4.90L45.62-4.90Q45.62-4.79 45.56-4.56L45.56-4.56Q45.49-4.33 45.49-4.20L45.49-4.20Q45.49-3.17 45.05-2.06L45.05-2.06Q45.07-1.99 45.07-1.93L45.07-1.93L45.35-1.67Q45.53-1.51 45.66-1.44L45.66-1.44L46.02-1.26Q46.32-1.10 46.57-0.95L46.57-0.95Q46.88-0.77 47.06-0.62L47.06-0.62Q47.28-0.47 47.28-0.38L47.28-0.38Q47.28-0.35 47.29-0.31L47.29-0.31L47.32-0.24Q47.35-0.14 47.35-0.10L47.35-0.10ZM42.12-5.34Q42.12-5.27 42.11-5.20L42.11-5.20Q42.11-5.11 42.08-5.05L42.08-5.05Q42.02-4.90 41.87-4.90L41.87-4.90Q41.45-4.90 41.12-5.27L41.12-5.27Q41.00-5.40 40.86-5.63L40.86-5.63L40.64-5.99L40.63-6.07Q40.62-6.12 40.62-6.16L40.62-6.16Q40.62-6.26 40.68-6.41L40.68-6.41Q40.67-6.50 40.85-6.58L40.85-6.58Q40.99-6.64 41.11-6.64L41.11-6.64Q41.29-6.64 41.60-6.31L41.60-6.31Q41.89-6 41.90-5.82L41.90-5.82L42.05-5.59Q42.12-5.46 42.12-5.34L42.12-5.34ZM39.02-5.88Q39.02-5.86 38.93-5.64L38.93-5.64L38.47-4.74Q38.35-4.52 38.33-4.50L38.33-4.50L38.11-4.33Q37.94-4.19 37.75-4.06L37.75-4.06L37.40-3.79Q37.25-3.68 37.22-3.68L37.22-3.68Q36.77-3.68 36.77-4.09L36.77-4.09Q36.77-4.21 36.91-4.46L36.91-4.46Q37.04-4.70 37.26-4.98L37.26-4.98Q37.75-5.62 37.99-5.72L37.99-5.72L38.15-5.80Q38.23-5.84 38.29-5.90L38.29-5.90L38.38-6Q38.44-6.06 38.48-6.10L38.48-6.10Q38.60-6.18 38.71-6.18L38.71-6.18Q39.02-6.18 39.02-5.88L39.02-5.88ZM41.41-1.22Q41.41-0.76 40.93-0.76L40.93-0.76Q40.70-0.76 40.38-1.09L40.38-1.09Q40.27-1.20 40.13-1.38L40.13-1.38L39.91-1.63L39.82-1.61Q39.80-1.61 39.79-1.60L39.79-1.60Q39.71-1.58 39.66-1.56L39.66-1.56Q39.53-1.38 39.30-1.24L39.30-1.24Q39.13-1.12 38.92-0.85L38.92-0.85L38.56-0.41Q38.09 0.12 37.60 0.12L37.60 0.12Q37.02 0.12 37.02-0.40L37.02-0.40Q37.02-0.78 37.45-1.02L37.45-1.02L37.84-1.19Q38.08-1.28 38.18-1.36L38.18-1.36Q38.33-1.44 38.42-1.56L38.42-1.56Q38.47-1.61 38.51-1.67L38.51-1.67L38.71-1.99Q38.80-2.10 38.90-2.18L38.90-2.18L38.90-2.69Q38.65-2.81 38.53-2.93L38.53-2.93Q38.34-3.10 38.34-3.30L38.34-3.30Q38.34-3.59 38.64-3.59L38.64-3.59Q38.84-3.59 39.06-3.44L39.06-3.44L39.23-3.32Q39.32-3.26 39.42-3.23L39.42-3.23L39.68-3.29Q39.88-3.66 39.88-4.19L39.88-4.19L39.85-4.49Q39.84-4.72 39.85-4.85L39.85-4.85Q39.89-5.26 40.25-5.26L40.25-5.26Q40.51-5.26 40.64-4.99L40.64-4.99Q40.75-4.79 40.75-4.49L40.75-4.49Q40.75-4.38 40.73-4.25L40.73-4.25Q40.70-4.19 40.69-4.13L40.69-4.13L40.62-3.89Q40.60-3.83 40.60-3.78L40.60-3.78Q40.56-3.65 40.56-3.54L40.56-3.54Q40.56-3.25 40.42-3.10L40.42-3.10L40.44-2.62Q40.62-2.47 41.00-1.94L41.00-1.94Q41.18-1.69 41.29-1.51L41.29-1.51Q41.41-1.30 41.41-1.22L41.41-1.22ZM58.97-7.46L58.99-6.74Q58.99-6.37 58.82-5.66L58.82-5.66Q58.74-5.29 58.63-5.08L58.63-5.08Q58.52-4.82 58.40-4.82L58.40-4.82Q58.26-4.82 58.22-5.10L58.22-5.10Q58.20-5.18 58.20-5.32L58.20-5.32L58.20-5.48Q58.20-5.72 58.16-6.01L58.16-6.01Q58.14-6.23 58.08-6.54L58.08-6.54Q58.03-6.61 58.00-6.73L58.00-6.73Q58.06-7.07 57.54-7.25L57.54-7.25Q57.35-7.31 57.10-7.34L57.10-7.34Q56.90-7.37 56.75-7.37L56.75-7.37Q56.65-7.37 56.46-7.32L56.46-7.32Q56.28-7.26 56.17-7.26L56.17-7.26Q55.72-7.26 55.36-7.19L55.36-7.19Q54.83-7.09 54.62-6.85L54.62-6.85Q54.55-6.64 54.24-6.38L54.24-6.38Q53.92-6.13 53.69-6.13L53.69-6.13Q53.41-6.13 53.41-6.36L53.41-6.36Q53.41-6.41 53.58-6.71L53.58-6.71L53.95-7.38Q54.18-7.82 54.31-8.17L54.31-8.17Q54.48-8.60 54.48-8.89L54.48-8.89Q54.48-9.36 54.55-9.53L54.55-9.53Q54.68-9.83 55.08-9.83L55.08-9.83Q55.34-9.83 55.51-9.53L55.51-9.53Q55.64-9.28 55.64-9L55.64-9Q55.64-8.66 55.49-8.40L55.49-8.40Q55.68-8.26 55.76-8.17L55.76-8.17L55.96-8.17Q56.08-8.17 56.22-8.18L56.22-8.18L56.60-8.23Q56.68-8.23 56.72-8.24L56.72-8.24Q56.87-8.26 56.99-8.26L56.99-8.26Q57.10-8.26 57.23-8.23L57.23-8.23Q57.29-8.23 57.35-8.22L57.35-8.22L57.59-8.17Q57.65-8.16 57.71-8.16L57.71-8.16Q57.84-8.14 57.95-8.14L57.95-8.14Q58.38-8.14 58.62-8.02L58.62-8.02Q58.97-7.86 58.97-7.46L58.97-7.46ZM56.88-3.84Q56.88-3.61 56.60-3.61L56.60-3.61Q56.51-3.61 56.33-3.68L56.33-3.68Q56.15-3.76 56.05-3.76L56.05-3.76L55.99-3.76Q55.73-3.83 55.50-3.90L55.50-3.90Q55.16-4.01 54.91-4.13L54.91-4.13Q54.23-4.46 54.23-4.86L54.23-4.86Q54.23-5.38 54.82-5.38L54.82-5.38Q55.24-5.38 56.04-4.82L56.04-4.82Q56.88-4.24 56.88-3.84L56.88-3.84ZM58.97-1.49Q58.97-0.59 58.03-0.19L58.03-0.19Q57.67-0.04 57.18 0.02L57.18 0.02Q56.80 0.08 56.34 0.08L56.34 0.08Q56.20 0.08 55.94-0.01L55.94-0.01Q55.69-0.11 55.56-0.11L55.56-0.11Q55.16-0.11 54.65-0.52L54.65-0.52Q54.10-0.95 54.10-1.33L54.10-1.33Q54.10-1.76 54.46-1.76L54.46-1.76Q54.77-1.76 54.97-1.54L54.97-1.54Q55.02-1.49 55.30-1.37L55.30-1.37Q55.55-1.25 55.90-1.12L55.90-1.12Q56.26-0.97 56.52-0.88L56.52-0.88Q56.82-0.78 56.89-0.78L56.89-0.78Q56.94-0.78 57.12-0.89L57.12-0.89Q57.28-1.00 57.48-1.15L57.48-1.15Q57.68-1.30 57.83-1.42L57.83-1.42Q57.98-1.55 57.98-1.57L57.98-1.57Q58.00-1.64 58.03-1.74L58.03-1.74L58.09-1.90Q58.16-2.10 58.16-2.22L58.16-2.22Q58.16-2.33 58.13-2.52L58.13-2.52Q58.09-2.71 58.09-2.81L58.09-2.81Q58.09-2.87 58.10-2.95L58.10-2.95L58.15-3.16Q58.15-3.19 58.16-3.22L58.16-3.22Q58.18-3.29 58.18-3.35L58.18-3.35L58.16-3.58Q58.16-3.77 58.18-3.90L58.18-3.90Q58.22-4.31 58.44-4.31L58.44-4.31Q58.54-4.31 58.63-4.10L58.63-4.10Q58.72-3.94 58.80-3.64L58.80-3.64Q58.94-3.06 58.94-2.77L58.94-2.77Q58.94-2.66 58.91-2.48L58.91-2.48Q58.86-2.29 58.86-2.20L58.86-2.20Q58.86-2.08 58.92-1.85L58.92-1.85Q58.97-1.62 58.97-1.49L58.97-1.49ZM53.08-2.90L53.08-2.12L53.05-1.84Q53.03-1.48 52.96-1.20L52.96-1.20Q52.75-0.43 52.26-0.43L52.26-0.43Q52.20-0.43 52.13-0.42L52.13-0.42L51.86-0.38Q51.79-0.37 51.73-0.37L51.73-0.37Q51.67-0.37 51.59-0.38L51.59-0.38L51.46-0.41Q51.36-0.43 51.31-0.43L51.31-0.43Q51.23-0.44 51.17-0.44L51.17-0.44Q51.07-0.44 50.88-0.40L50.88-0.40Q50.70-0.35 50.59-0.35L50.59-0.35Q50.47-0.35 50.26-0.38L50.26-0.38Q50.04-0.42 49.93-0.42L49.93-0.42L49.60-0.36Q49.54-0.35 49.49-0.35L49.49-0.35Q49.24-0.35 49.03-0.59L49.03-0.59Q48.84-0.82 48.84-1.08L48.84-1.08L48.84-1.30Q48.82-1.42 48.76-1.50L48.76-1.50Q48.70-1.84 48.70-2.10L48.70-2.10Q48.70-2.28 48.71-2.51L48.71-2.51L48.73-2.93Q48.76-3.20 48.76-3.34L48.76-3.34Q48.77-3.56 48.77-3.74L48.77-3.74Q48.77-3.80 48.76-3.88L48.76-3.88L48.73-4.15Q48.72-4.22 48.72-4.28L48.72-4.28Q48.72-4.52 48.78-4.98L48.78-4.98Q48.84-5.45 48.84-5.68L48.84-5.68L48.83-6.20Q48.83-6.56 48.86-6.80L48.86-6.80Q48.95-7.50 49.33-7.75L49.33-7.75L49.42-7.75Q49.54-7.75 49.60-7.69L49.60-7.69L49.70-7.64Q49.75-7.64 49.81-7.66L49.81-7.66L50.03-7.72Q50.09-7.73 50.14-7.73L50.14-7.73L50.22-7.73Q50.44-7.90 50.59-8.11L50.59-8.11L50.38-8.50Q50.26-8.74 50.26-8.92L50.26-8.92Q50.26-9.18 50.45-9.42L50.45-9.42Q50.65-9.68 50.90-9.68L50.90-9.68Q51.32-9.68 51.42-9.22L51.42-9.22Q51.53-9.06 51.53-8.80L51.53-8.80Q51.53-8.65 51.48-8.46L51.48-8.46L51.42-8.22Q51.41-8.16 51.40-8.14L51.40-8.14Q51.54-7.86 51.79-7.63L51.79-7.63Q52.57-7.63 52.82-7.15L52.82-7.15Q52.93-6.95 52.97-6.62L52.97-6.62Q52.99-6.40 52.99-5.98L52.99-5.98Q52.99-5.77 52.91-5.59L52.91-5.59Q52.80-5.38 52.62-5.38L52.62-5.38Q52.28-5.38 52.20-5.89L52.20-5.89L52.16-6.20Q52.15-6.25 52.15-6.30L52.15-6.30Q52.14-6.41 52.12-6.47L52.12-6.47Q52.10-6.55 52.07-6.60L52.07-6.60Q51.96-6.76 51.59-6.84L51.59-6.84Q51.34-6.89 51.04-6.89L51.04-6.89Q50.92-6.89 50.70-6.84L50.70-6.84Q50.48-6.79 50.38-6.79L50.38-6.79Q49.62-6.79 49.62-6L49.62-6L49.63-5.70Q49.63-5.63 49.64-5.60L49.64-5.60Q49.66-5.36 49.63-5.20L49.63-5.20L50.16-4.80Q50.20-4.80 50.24-4.81L50.24-4.81Q50.26-4.82 50.28-4.82L50.28-4.82L50.33-4.84Q50.42-4.86 50.50-4.86L50.50-4.86Q50.70-4.86 50.92-4.76L50.92-4.76Q51.17-4.74 51.32-4.67L51.32-4.67Q51.55-4.56 51.55-4.34L51.55-4.34Q51.55-4.30 51.48-4.22L51.48-4.22Q51.42-4.16 51.31-4.10L51.31-4.10Q51.08-3.97 50.96-3.97L50.96-3.97Q50.84-3.97 50.60-3.95L50.60-3.95Q50.36-3.91 50.23-3.91L50.23-3.91L50.15-3.91Q50.09-3.92 50.05-3.91L50.05-3.91Q49.75-3.80 49.52-3.40L49.52-3.40Q49.54-3.26 49.50-2.96L49.50-2.96L49.46-2.51Q49.46-2.40 49.51-2.18L49.51-2.18Q49.56-1.98 49.56-1.86L49.56-1.86Q49.56-1.52 49.86-1.37L49.86-1.37Q50.09-1.25 50.46-1.25L50.46-1.25L50.93-1.31L51.29-1.31Q51.53-1.31 51.67-1.34L51.67-1.34Q52.10-1.45 52.13-1.87L52.13-1.87Q52.13-1.99 52.20-2.22L52.20-2.22Q52.26-2.45 52.26-2.57L52.26-2.57L52.30-3.43Q52.30-3.55 52.28-3.72L52.28-3.72L52.25-4.02Q52.20-4.42 52.20-4.61L52.20-4.61Q52.20-4.97 52.49-4.97L52.49-4.97Q52.94-4.97 52.94-4.57L52.94-4.57L52.93-4.51Q53.02-4.06 53.05-3.44L53.05-3.44L53.08-2.90ZM70.67-7.66Q70.67-7.32 70.25-7.15L70.25-7.15Q70.09-7.09 69.89-7.06L69.89-7.06Q69.71-7.03 69.55-7.03L69.55-7.03Q69.32-7.03 68.84-7.09L68.84-7.09Q68.38-7.14 68.14-7.14L68.14-7.14Q68.02-7.14 67.81-7.16L67.81-7.16Q67.61-7.19 67.50-7.19L67.50-7.19Q67.36-7.19 67.09-7.12L67.09-7.12Q66.82-7.04 66.68-7.04L66.68-7.04Q66.50-7.04 66.28-7.01L66.28-7.01Q66.25-7.00 66.18-6.98L66.18-6.98L65.88-6.94L65.65-6.79L65.53-6.41Q65.45-6.16 65.35-5.96L65.35-5.96Q65.09-5.45 64.73-5.45L64.73-5.45Q64.52-5.45 64.52-5.66L64.52-5.66Q64.52-5.69 64.56-5.83L64.56-5.83L64.66-6.14Q64.78-6.54 64.81-6.64L64.81-6.64Q64.70-6.79 64.60-6.86L64.60-6.86Q64.12-6.80 63.73-6.80L63.73-6.80L62.81-6.78Q62.70-6.78 62.48-6.80L62.48-6.80Q62.29-6.73 62.09-6.73L62.09-6.73Q61.44-6.73 61.44-7.24L61.44-7.24Q61.44-7.52 61.72-7.69L61.72-7.69Q61.96-7.85 62.26-7.85L62.26-7.85Q62.45-7.85 62.83-7.78L62.83-7.78Q63.22-7.69 63.42-7.69L63.42-7.69Q63.56-7.69 63.76-7.72L63.76-7.72L64.09-7.75Q64.52-7.82 64.75-7.81L64.75-7.81L64.99-7.97Q65.04-8.17 65.04-8.44L65.04-8.44Q65.04-8.53 65.02-8.65L65.02-8.65L64.88-9.07Q64.85-9.19 64.85-9.29L64.85-9.29Q64.85-9.85 65.33-9.85L65.33-9.85Q65.64-9.85 65.86-9.52L65.86-9.52Q66.04-9.23 66.04-8.89L66.04-8.89Q66.04-8.57 65.90-8.32L65.90-8.32Q65.96-8.26 65.99-8.22L65.99-8.22L66.07-8.12Q66.17-8.02 66.25-7.94L66.25-7.94Q66.38-7.99 66.66-8.02L66.66-8.02Q66.85-8.03 67.08-8.03L67.08-8.03Q67.20-8.03 67.34-8.00L67.34-8.00Q67.40-8.00 67.46-7.99L67.46-7.99L67.72-7.93Q67.79-7.92 67.85-7.92L67.85-7.92Q67.98-7.90 68.10-7.90L68.10-7.90Q68.20-7.90 68.32-7.93L68.32-7.93L68.77-8.11Q68.92-8.15 69.04-8.15L69.04-8.15L69.90-8.15Q70.13-8.15 70.38-8.02L70.38-8.02Q70.67-7.86 70.67-7.66L70.67-7.66ZM70.56-3.85Q70.56-3.58 70.24-3.42L70.24-3.42Q69.97-3.31 69.65-3.31L69.65-3.31Q69.55-3.31 69.34-3.35L69.34-3.35Q69.13-3.37 69.02-3.37L69.02-3.37Q68.83-3.37 68.74-3.36L68.74-3.36Q68.62-3.31 68.52-3.22L68.52-3.22L68.47-2.94Q68.45-2.86 68.45-2.80L68.45-2.80Q68.44-2.72 68.44-2.65L68.44-2.65Q68.44-2.53 68.42-2.40L68.42-2.40Q68.40-2.23 68.35-2.10L68.35-2.10Q68.23-1.75 67.97-1.75L67.97-1.75Q67.76-1.75 67.73-2.03L67.73-2.03L67.72-2.15Q67.72-2.22 67.70-2.26L67.70-2.26Q67.68-2.39 67.63-2.44L67.63-2.44Q67.58-2.57 67.58-2.71L67.58-2.71L67.61-3.08Q67.50-3.22 67.30-3.31L67.30-3.31L66.94-3.26Q66.72-3.23 66.58-3.23L66.58-3.23L65.59-3.18Q65.00-3.18 65.00-3.62L65.00-3.62Q65.00-3.89 65.24-4.04L65.24-4.04Q65.46-4.18 65.74-4.18L65.74-4.18Q65.87-4.18 66.11-4.13L66.11-4.13Q66.35-4.07 66.47-4.07L66.47-4.07L67.06-4.10Q67.24-4.20 67.54-4.45L67.54-4.45L67.49-4.86Q67.45-5.11 67.45-5.27L67.45-5.27Q67.45-5.82 67.97-5.82L67.97-5.82Q68.29-5.82 68.45-5.40L68.45-5.40Q68.57-5.08 68.56-4.70L68.56-4.70L68.54-4.42Q68.66-4.30 68.81-4.19L68.81-4.19Q68.99-4.30 69.32-4.31L69.32-4.31Q69.38-4.32 69.46-4.32L69.46-4.32L69.85-4.31Q70.06-4.31 70.30-4.19L70.30-4.19Q70.56-4.04 70.56-3.85L70.56-3.85ZM71.04-0.40Q71.04 0.01 70.46 0.01L70.46 0.01Q70.27 0.01 69.89-0.10L69.89-0.10Q69.50-0.19 69.30-0.19L69.30-0.19Q69.18-0.19 68.93-0.16L68.93-0.16Q68.69-0.12 68.56-0.12L68.56-0.12Q68.42-0.12 68.20-0.18L68.20-0.18Q67.97-0.23 67.85-0.23L67.85-0.23L67.50-0.23Q67.25-0.23 67.06-0.22L67.06-0.22Q66.49-0.20 66.31-0.13L66.31-0.13Q65.88 0.05 65.58 0.05L65.58 0.05L65.39 0.05Q65.22 0.14 65.03 0.14L65.03 0.14Q64.56 0.14 64.56-0.30L64.56-0.30Q64.56-0.61 64.94-0.82L64.94-0.82Q65.27-0.98 65.60-0.98L65.60-0.98L66.18-0.98Q66.37-0.98 66.50-0.97L66.50-0.97Q66.66-0.96 66.72-0.94L66.72-0.94Q67.12-1.06 67.44-1.28L67.44-1.28L67.68-1.45Q67.82-1.54 67.97-1.60L67.97-1.60Q68.10-1.60 68.59-1.37L68.59-1.37L69.25-1.06Q69.41-1.06 69.61-1.03L69.61-1.03L69.89-0.98Q69.94-0.97 69.97-0.97L69.97-0.97Q70.03-0.96 70.10-0.96L70.10-0.96L70.24-0.96Q70.60-0.96 70.79-0.86L70.79-0.86Q71.04-0.73 71.04-0.40L71.04-0.40ZM64.55-5.15Q64.55-5.14 64.46-4.97L64.46-4.97L64.04-4.13L63.90-3.80Q63.97-2.78 63.91-1.66L63.91-1.66L63.92-1.31Q63.92-1.21 63.94-1.15L63.94-1.15Q63.95-0.72 63.94-0.43L63.94-0.43Q63.88 0.50 63.47 0.50L63.47 0.50Q63.30 0.50 63.22 0.11L63.22 0.11Q63.18-0.04 63.17-0.22L63.17-0.22Q63.16-0.36 63.16-0.47L63.16-0.47Q63.16-1.06 63.14-1.50L63.14-1.50Q63.12-2.05 63.08-2.53L63.08-2.53L62.87-2.59Q62.72-2.44 62.53-2.32L62.53-2.32Q62.46-2.29 62.35-2.20L62.35-2.20L62.24-2.09Q62.18-2.02 62.14-1.98L62.14-1.98Q61.81-1.68 61.38-1.68L61.38-1.68Q60.83-1.68 60.83-2.17L60.83-2.17Q60.83-2.54 61.32-2.81L61.32-2.81Q61.37-2.82 61.43-2.86L61.43-2.86Q61.48-2.87 61.54-2.90L61.54-2.90L61.64-2.95Q61.70-2.98 61.74-3L61.74-3Q61.99-3.11 62.10-3.22L62.10-3.22L62.20-3.30L62.54-3.52Q62.68-3.76 62.78-4.12L62.78-4.12Q62.69-4.31 62.69-4.58L62.69-4.58Q62.69-4.91 62.81-5.12L62.81-5.12Q62.95-5.40 63.24-5.40L63.24-5.40Q63.64-5.40 63.79-4.96L63.79-4.96L64.02-5.20Q64.18-5.34 64.30-5.34L64.30-5.34Q64.55-5.34 64.55-5.15L64.55-5.15ZM81.38-9.74L81.38-9.74Q81.06-9.66 81.05-9.26L81.05-9.26Q80.96-8.88 80.80-8.64L80.80-8.64Q80.75-8.56 80.84-8.40L80.84-8.40Q80.96-8.28 81.11-8.32L81.11-8.32Q81.32-8.46 81.58-8.57L81.58-8.57Q81.96-8.72 82.03-8.95L82.03-8.95Q82.22-9.25 82.14-9.40L82.14-9.40Q82.10-9.41 82.08-9.50L82.08-9.50Q82.07-9.59 81.92-9.68L81.92-9.68Q81.80-9.70 81.72-9.77L81.72-9.77Q81.61-9.82 81.38-9.74ZM81.41-5.71L81.41-5.71Q80.76-5.66 80.38-5.54L80.38-5.54Q80.27-5.53 80.20-5.48L80.20-5.48Q80.04-5.57 79.93-5.64L79.93-5.64Q79.90-5.68 79.86-5.69L79.86-5.69Q79.85-5.87 79.80-6.01L79.80-6.01Q79.75-6.19 79.80-6.36L79.80-6.36Q79.80-6.37 79.80-6.41L79.80-6.41Q79.88-6.56 80.03-6.66L80.03-6.66Q80.10-6.70 80.20-6.72L80.20-6.72Q80.54-6.83 80.89-6.80L80.89-6.80Q81.29-6.67 81.61-6.79L81.61-6.79Q81.86-6.94 81.86-7.15L81.86-7.15Q81.86-7.43 81.66-7.57L81.66-7.57Q81.47-7.73 81.25-7.72L81.25-7.72Q81.06-7.70 80.80-7.73L80.80-7.73Q80.27-7.72 79.96-7.61L79.96-7.61Q79.91-7.66 79.86-7.70L79.86-7.70Q79.81-7.76 79.75-7.81L79.75-7.81Q79.75-7.85 79.76-7.87L79.76-7.87Q79.80-8.30 79.98-8.65L79.98-8.65Q80.21-9 80.17-9.42L80.17-9.42Q80.16-9.71 79.88-9.86L79.88-9.86Q79.70-9.98 79.46-9.89L79.46-9.89Q79.22-9.72 79.15-9.54L79.15-9.54Q79.01-9.22 79.00-8.77L79.00-8.77Q79.01-8.46 79.00-8.15L79.00-8.15Q78.92-7.99 78.97-7.85L78.97-7.85Q78.97-7.76 78.97-7.67L78.97-7.67Q78.89-7.55 78.79-7.39L78.79-7.39Q78.76-7.34 78.70-7.27L78.70-7.27Q78.58-7.27 78.46-7.22L78.46-7.22Q78.28-7.15 78.12-7.16L78.12-7.16Q77.94-7.16 77.74-7.02L77.74-7.02Q77.47-6.95 77.29-6.77L77.29-6.77Q77.15-6.62 77.17-6.38L77.17-6.38Q77.18-6.13 77.45-6.02L77.45-6.02Q77.75-5.95 78-6.10L78-6.10Q78.12-6.11 78.25-6.16L78.25-6.16Q78.36-6.20 78.55-6.32L78.55-6.32Q78.56-6.34 78.61-6.36L78.61-6.36Q78.65-6.36 78.67-6.35L78.67-6.35Q78.85-6.30 78.98-6.20L78.98-6.20Q79.00-6.16 79.00-6.08L79.00-6.08Q79.00-5.75 79.07-5.54L79.07-5.54Q79.08-5.51 79.09-5.46L79.09-5.46Q79.04-5.35 78.98-5.26L78.98-5.26Q78.94-5.18 78.88-5.10L78.88-5.10Q78.77-5.10 78.68-5.04L78.68-5.04Q78.49-4.96 78.28-4.96L78.28-4.96Q78.10-4.96 77.83-4.79L77.83-4.79Q77.58-4.73 77.42-4.55L77.42-4.55Q77.28-4.39 77.30-4.19L77.30-4.19Q77.32-3.94 77.58-3.83L77.58-3.83Q77.83-3.78 78.10-3.90L78.10-3.90Q78.24-3.91 78.38-3.98L78.38-3.98Q78.54-4.03 78.74-4.21L78.74-4.21Q78.82-4.27 78.98-4.30L78.98-4.30Q79.03-4.28 79.09-4.26L79.09-4.26Q79.25-4.22 79.39-4.10L79.39-4.10Q79.43-3.98 79.51-3.89L79.51-3.89Q79.58-3.82 79.66-3.80L79.66-3.80Q79.70-3.76 79.78-3.76L79.78-3.76Q79.82-3.74 79.93-3.98L79.93-3.98Q79.93-4.00 79.93-4.01L79.93-4.01Q80.05-4.33 80.23-4.57L80.23-4.57Q80.45-4.61 80.69-4.72L80.69-4.72Q81.08-4.86 81.50-4.84L81.50-4.84Q81.89-4.73 82.19-4.82L82.19-4.82Q82.44-4.97 82.43-5.17L82.43-5.17Q82.43-5.42 82.22-5.57L82.22-5.57Q82.04-5.71 81.83-5.70L81.83-5.70Q81.65-5.69 81.41-5.71ZM81.44-3.84L81.44-3.84Q81.40-3.44 81.13-2.87L81.13-2.87Q80.99-2.65 80.78-2.41L80.78-2.41Q80.68-2.42 80.60-2.42L80.60-2.42Q80.52-2.58 80.45-2.82L80.45-2.82Q80.36-3.11 80.15-3.34L80.15-3.34Q79.96-3.53 79.84-3.47L79.84-3.47Q79.73-3.40 79.72-3.08L79.72-3.08Q79.73-2.70 79.82-2.50L79.82-2.50Q79.87-2.35 79.94-2.21L79.94-2.21Q79.93-1.91 79.87-1.63L79.87-1.63Q79.66-1.40 79.37-1.30L79.37-1.30Q78.98-1.19 78.74-0.90L78.74-0.90Q78.48-0.68 78.11-0.55L78.11-0.55Q77.71-0.47 77.47-0.48L77.47-0.48Q77.22-0.48 76.98-0.37L76.98-0.37Q76.76-0.25 76.68-0.11L76.68-0.11Q76.56 0.07 76.64 0.26L76.64 0.26Q76.69 0.38 76.75 0.42L76.75 0.42Q76.79 0.43 76.82 0.52L76.82 0.52Q76.84 0.60 77.14 0.64L77.14 0.64Q77.46 0.67 77.75 0.49L77.75 0.49Q77.87 0.41 78.08 0.38L78.08 0.38Q78.26 0.37 78.58 0.13L78.58 0.13Q78.86-0.16 79.30-0.26L79.30-0.26Q79.82-0.38 80.03-0.65L80.03-0.65Q80.08-0.72 80.14-0.76L80.14-0.76Q80.27-0.77 80.47-0.77L80.47-0.77Q80.62-0.78 80.74-0.77L80.74-0.77Q80.81-0.71 80.84-0.58L80.84-0.58Q80.88-0.47 81.14-0.12L81.14-0.12Q81.29 0.11 81.38 0.13L81.38 0.13Q81.53 0.18 81.65 0.35L81.65 0.35Q81.73 0.47 81.89 0.53L81.89 0.53Q82.15 0.68 82.32 0.67L82.32 0.67Q82.50 0.68 82.73 0.76L82.73 0.76Q82.94 0.83 83.24 0.67L83.24 0.67Q83.42 0.53 83.46 0.25L83.46 0.25Q83.47-0.04 83.47-0.25L83.47-0.25Q83.47-0.50 83.51-0.68L83.51-0.68Q83.58-0.92 83.56-1.20L83.56-1.20Q83.54-1.44 83.34-1.61L83.34-1.61Q83.06-1.78 82.86-1.63L82.86-1.63Q82.68-1.40 82.68-1.19L82.68-1.19Q82.68-1.00 82.66-0.83L82.66-0.83Q82.61-0.70 82.54-0.59L82.54-0.59Q82.46-0.50 82.37-0.46L82.37-0.46Q82.26-0.44 82.12-0.53L82.12-0.53Q81.96-0.65 81.76-0.79L81.76-0.79Q81.72-0.80 81.67-0.89L81.67-0.89Q81.62-1.00 81.54-1.04L81.54-1.04Q81.49-1.09 81.47-1.14L81.47-1.14Q81.46-1.18 81.30-1.31L81.30-1.31Q81.29-1.32 81.28-1.33L81.28-1.33Q81.28-1.56 81.28-1.75L81.28-1.75Q81.28-1.79 81.28-1.85L81.28-1.85Q81.38-1.99 81.55-2.08L81.55-2.08Q81.74-2.20 81.82-2.48L81.82-2.48Q81.90-2.68 82.06-2.86L82.06-2.86Q82.33-3.16 82.43-3.44L82.43-3.44Q82.51-3.71 82.54-3.95L82.54-3.95Q82.54-4.24 82.40-4.40L82.40-4.40Q82.32-4.55 82.10-4.58L82.10-4.58Q81.95-4.60 81.79-4.52L81.79-4.52Q81.66-4.44 81.55-4.27L81.55-4.27Q81.48-4.10 81.44-3.84ZM73.72-1.18L73.72-1.18Q73.42-1.14 73.15-0.98L73.15-0.98Q72.94-0.86 72.82-0.59L72.82-0.59Q72.74-0.29 72.80-0.11L72.80-0.11Q72.91 0.11 73.20 0.19L73.20 0.19Q73.49 0.25 73.84 0.08L73.84 0.08Q74.09-0.04 74.17-0.17L74.17-0.17Q74.24-0.25 74.38-0.29L74.38-0.29Q74.52-0.32 74.66-0.44L74.66-0.44Q74.84-0.62 75.20-0.62L75.20-0.62Q75.46-0.61 75.65-0.67L75.65-0.67Q75.92-0.77 76.19-0.76L76.19-0.76Q76.51-0.72 76.75-0.84L76.75-0.84Q76.98-0.96 77.03-1.21L77.03-1.21Q77.04-1.46 76.88-1.62L76.88-1.62Q76.70-1.70 76.55-1.74L76.55-1.74Q76.39-1.76 76.25-1.72L76.25-1.72Q76.06-1.67 75.84-1.63L75.84-1.63Q75.76-1.63 75.64-1.56L75.64-1.56Q75.52-1.51 75.46-1.52L75.46-1.52Q75.13-1.56 74.98-1.54L74.98-1.54Q74.80-1.50 74.59-1.40L74.59-1.40Q74.48-1.36 74.34-1.34L74.34-1.34Q74.12-1.33 73.96-1.24L73.96-1.24Q73.87-1.19 73.72-1.18ZM75.11-2.40L75.11-2.40Q75.58-2.44 75.84-2.72L75.84-2.72Q76.02-2.93 76.25-3.07L76.25-3.07Q76.44-3.19 76.49-3.29L76.49-3.29Q76.54-3.34 76.62-3.41L76.62-3.41Q76.75-3.59 76.75-3.83L76.75-3.83Q76.76-3.97 76.72-4.12L76.72-4.12Q76.67-4.25 76.63-4.49L76.63-4.49Q76.62-4.68 76.49-4.93L76.49-4.93Q76.44-5.08 76.36-5.14L76.36-5.14Q76.27-5.21 76.24-5.33L76.24-5.33Q76.16-5.45 76.07-5.51L76.07-5.51Q76.06-5.74 76.03-5.89L76.03-5.89Q76.02-5.98 75.98-6.10L75.98-6.10Q76.02-6.18 76.10-6.23L76.10-6.23Q76.27-6.37 76.57-6.46L76.57-6.46Q76.69-6.47 76.80-6.68L76.80-6.68Q76.87-6.83 76.81-6.97L76.81-6.97Q76.76-7.15 76.81-7.24L76.81-7.24Q76.86-7.30 76.75-7.50L76.75-7.50Q76.54-7.79 76.20-7.84L76.20-7.84Q76.06-7.85 76.00-7.88L76.00-7.88Q75.89-7.93 75.80-7.88L75.80-7.88Q75.73-7.84 75.65-7.82L75.65-7.82Q75.47-7.82 75.41-7.73L75.41-7.73Q75.32-7.54 75.42-7.46L75.42-7.46Q75.64-7.31 75.65-7.24L75.65-7.24Q75.68-7.13 75.59-7.04L75.59-7.04Q75.54-7.00 75.49-6.86L75.49-6.86Q75.42-6.70 75.30-6.61L75.30-6.61Q75.25-6.60 75.23-6.49L75.23-6.49Q75.16-6.34 75.02-6.32L75.02-6.32Q74.92-6.32 74.82-6.23L74.82-6.23Q74.69-6.08 74.50-6.19L74.50-6.19Q74.46-6.23 74.32-6.25L74.32-6.25Q74.17-6.25 74.12-6.35L74.12-6.35Q74.11-6.42 74.02-6.44L74.02-6.44Q73.93-6.48 73.81-6.66L73.81-6.66Q73.75-6.79 73.86-7.09L73.86-7.09Q73.94-7.40 74.04-7.45L74.04-7.45Q74.09-7.49 74.17-7.64L74.17-7.64Q74.22-7.78 74.32-7.85L74.32-7.85Q74.40-7.88 74.44-8.03L74.44-8.03Q74.45-8.10 74.57-8.22L74.57-8.22Q74.65-8.29 74.72-8.29L74.72-8.29Q74.76-8.28 74.86-8.34L74.86-8.34Q74.94-8.41 75.05-8.39L75.05-8.39Q75.17-8.35 75.25-8.42L75.25-8.42Q75.30-8.47 75.44-8.45L75.44-8.45Q75.56-8.44 75.76-8.58L75.76-8.58Q75.84-8.63 75.84-8.82L75.84-8.82Q75.85-9.05 75.58-9.26L75.58-9.26Q75.35-9.42 75.16-9.38L75.16-9.38Q75.08-9.37 74.94-9.43L74.94-9.43Q74.76-9.48 74.65-9.42L74.65-9.42Q74.58-9.37 74.48-9.38L74.48-9.38Q74.36-9.40 74.16-9.08L74.16-9.08Q74.08-8.94 73.99-8.92L73.99-8.92Q73.91-8.88 73.86-8.76L73.86-8.76Q73.85-8.66 73.76-8.63L73.76-8.63Q73.66-8.58 73.62-8.46L73.62-8.46Q73.58-8.34 73.52-8.29L73.52-8.29Q73.44-8.26 73.18-7.80L73.18-7.80Q72.92-7.42 72.94-7.30L72.94-7.30Q72.95-7.22 72.85-7.15L72.85-7.15Q72.80-7.08 72.80-6.76L72.80-6.76Q72.82-6.64 72.90-6.55L72.90-6.55Q72.98-6.47 72.97-6.40L72.97-6.40Q72.96-6.28 73.07-6.24L73.07-6.24Q73.14-6.20 73.19-6.14L73.19-6.14Q73.24-6.02 73.46-5.95L73.46-5.95Q73.55-5.94 73.62-5.82L73.62-5.82Q73.70-5.72 73.73-5.64L73.73-5.64Q73.80-5.45 73.68-5.26L73.68-5.26Q73.50-5.04 73.48-4.88L73.48-4.88Q73.46-4.72 73.34-4.67L73.34-4.67Q73.18-4.62 72.98-4.20L72.98-4.20Q72.86-3.97 72.89-3.79L72.89-3.79Q72.94-3.62 72.91-3.49L72.91-3.49Q72.88-3.30 73.18-2.84L73.18-2.84Q73.50-2.56 73.86-2.57L73.86-2.57Q74.09-2.58 74.35-2.42L74.35-2.42Q74.54-2.30 74.76-2.36L74.76-2.36Q74.94-2.40 75.11-2.40ZM75.49-5.22L75.49-5.22Q75.50-5.21 75.52-5.17L75.52-5.17Q75.53-5.14 75.59-5.09L75.59-5.09Q75.67-5.00 75.72-4.87L75.72-4.87Q75.76-4.76 75.78-4.74L75.78-4.74Q75.86-4.66 75.89-4.44L75.89-4.44Q75.90-4.20 75.85-4.04L75.85-4.04Q75.80-3.92 75.82-3.72L75.82-3.72Q75.82-3.71 75.82-3.68L75.82-3.68Q75.65-3.49 75.42-3.37L75.42-3.37Q75.18-3.29 75.02-3.32L75.02-3.32Q74.94-3.36 74.75-3.30L74.75-3.30Q74.68-3.26 74.54-3.35L74.54-3.35Q74.46-3.42 74.26-3.41L74.26-3.41Q74.11-3.41 73.96-3.50L73.96-3.50Q73.80-3.68 73.75-3.89L73.75-3.89Q73.75-4.01 73.90-4.14L73.90-4.14Q74.02-4.22 74.04-4.43L74.04-4.43Q74.05-4.57 74.22-4.66L74.22-4.66Q74.46-4.76 74.56-5.02L74.56-5.02Q74.60-5.17 74.77-5.18L74.77-5.18Q74.96-5.20 75.07-5.27L75.07-5.27Q75.12-5.32 75.19-5.33L75.19-5.33Q75.37-5.28 75.49-5.22L75.49-5.22ZM95.44-3.65Q95.44-3.24 95.08-2.90L95.08-2.90Q94.73-2.56 94.32-2.56L94.32-2.56Q93.73-2.56 93.16-2.59L93.16-2.59L92.92-2.63L92.69-2.70Q92.39-2.78 92.26-2.78L92.26-2.78Q92.21-2.78 92.15-2.77L92.15-2.77L91.93-2.69Q91.87-2.68 91.81-2.68L91.81-2.68Q91.27-2.68 90.95-3.44L90.95-3.44Q90.68-4.07 90.68-4.68L90.68-4.68L90.72-4.88Q90.74-5.00 90.72-5.08L90.72-5.08L90.71-5.57Q90.71-5.84 90.73-6.05L90.73-6.05Q90.74-6.17 90.70-6.35L90.70-6.35Q90.65-6.56 90.65-6.65L90.65-6.65Q90.65-7.03 91.07-7.03L91.07-7.03Q91.61-7.03 91.61-6.41L91.61-6.41Q91.61-6.35 91.60-6.26L91.60-6.26L91.57-6Q91.56-5.92 91.56-5.86L91.56-5.86L91.74-5.87Q91.93-5.82 92.04-5.82L92.04-5.82L92.21-5.83Q92.46-6 92.58-6.20L92.58-6.20L92.51-6.50Q92.50-6.61 92.47-6.67L92.47-6.67Q92.44-6.76 92.40-6.79L92.40-6.79L92.35-7.09Q92.32-7.28 92.32-7.39L92.32-7.39L92.33-7.49Q92.33-7.54 92.34-7.58L92.34-7.58L92.23-7.66L91.76-7.54Q91.48-7.46 91.28-7.46L91.28-7.46Q91.03-7.46 90.86-7.52L90.86-7.52Q90.61-7.62 90.61-7.84L90.61-7.84Q90.61-8.28 91.25-8.36L91.25-8.36L91.38-8.39L91.79-8.41Q92.10-8.44 92.24-8.50L92.24-8.50Q92.65-8.69 93.08-8.69L93.08-8.69L93.98-8.74Q94.37-8.74 94.74-8.32L94.74-8.32Q95.09-7.92 95.09-7.52L95.09-7.52Q95.09-7.40 95.05-7.18L95.05-7.18Q95.00-6.94 95.00-6.82L95.00-6.82Q95.00-6.36 94.79-5.93L94.79-5.93Q94.52-5.41 94.13-5.41L94.13-5.41Q94.00-5.41 93.84-5.39L93.84-5.39Q93.78-5.36 93.71-5.35L93.71-5.35L93.44-5.28Q93.37-5.26 93.32-5.26L93.32-5.26Q93.17-5.22 93.05-5.22L93.05-5.22Q92.63-5.22 92.26-5.14L92.26-5.14Q91.79-5.02 91.56-4.79L91.56-4.79L91.56-4.70Q91.56-4.19 91.70-3.84L91.70-3.84Q91.90-3.36 92.34-3.36L92.34-3.36Q92.45-3.36 92.59-3.38L92.59-3.38Q92.65-3.38 92.72-3.40L92.72-3.40L93.11-3.47Q93.25-3.49 93.36-3.49L93.36-3.49L93.54-3.50Q93.65-3.50 93.73-3.52L93.73-3.52Q93.97-3.54 94.13-3.60L94.13-3.60Q94.57-3.76 94.57-4.15L94.57-4.15Q94.57-4.20 94.56-4.26L94.56-4.26L94.50-4.49Q94.49-4.55 94.49-4.61L94.49-4.61Q94.49-4.93 94.81-4.93L94.81-4.93Q95.12-4.93 95.30-4.42L95.30-4.42Q95.36-4.22 95.40-4.00L95.40-4.00Q95.44-3.80 95.44-3.65L95.44-3.65ZM90.80-9.66Q90.80-9.32 90.53-9.12L90.53-9.12Q90.28-8.93 89.94-8.93L89.94-8.93Q89.88-8.93 89.81-8.92L89.81-8.92L89.56-8.88Q89.48-8.87 89.42-8.87L89.42-8.87Q89.29-8.87 89.15-8.84L89.15-8.84L88.90-8.80Q88.81-8.77 88.78-8.77L88.78-8.77L88.64-8.75Q88.50-8.72 88.38-8.72L88.38-8.72Q87.95-8.72 87.50-8.63L87.50-8.63Q86.92-8.50 86.72-8.27L86.72-8.27Q86.64-8.17 86.56-7.97L86.56-7.97Q86.46-7.76 86.39-7.69L86.39-7.69Q86.34-7.72 86.28-7.79L86.28-7.79L86.03-8.20Q85.62-8.24 85.62-8.53L85.62-8.53Q85.62-8.89 86.59-9.23L86.59-9.23Q87.43-9.52 87.90-9.52L87.90-9.52Q88.25-9.52 88.58-9.62L88.58-9.62Q88.84-9.70 89.15-9.85L89.15-9.85Q89.20-9.86 89.28-9.91L89.28-9.91L89.63-10.07Q89.88-10.18 90.07-10.18L90.07-10.18Q90.35-10.18 90.55-10.06L90.55-10.06Q90.80-9.91 90.80-9.66L90.80-9.66ZM89.99-7.48Q89.99-7.36 89.95-7.19L89.95-7.19Q89.94-7.10 89.89-6.90L89.89-6.90Q89.78-6.50 89.78-6.29L89.78-6.29Q89.78-5.95 89.81-5.52L89.81-5.52L89.94-3.95Q89.96-3.52 89.96-3.17L89.96-3.17Q89.96-2.98 89.78-2.83L89.78-2.83Q89.47-2.96 89.32-3.46L89.32-3.46Q89.20-3.83 89.20-4.27L89.20-4.27Q89.20-4.52 89.16-4.81L89.16-4.81L89.00-5.76Q88.97-6.01 88.97-6.23L88.97-6.23Q88.97-6.34 89.00-6.53L89.00-6.53Q89.04-6.73 89.04-6.83L89.04-6.83Q89.04-6.86 89.03-6.91L89.03-6.91Q89.03-6.94 89.00-7.00L89.00-7.00L88.98-7.08Q88.97-7.13 88.97-7.16L88.97-7.16Q88.97-7.40 89.12-7.63L89.12-7.63Q89.30-7.87 89.53-7.87L89.53-7.87Q89.99-7.87 89.99-7.48L89.99-7.48ZM88.45-7.02L88.46-6.88Q88.48-6.70 88.48-6.29L88.48-6.29Q88.46-5.80 88.42-5.38L88.42-5.38Q88.37-4.85 88.27-4.55L88.27-4.55Q88.15-4.18 87.97-4.18L87.97-4.18Q87.88-4.18 87.80-4.37L87.80-4.37Q87.73-4.54 87.70-4.82L87.70-4.82Q87.66-5.05 87.65-5.32L87.65-5.32Q87.64-5.42 87.64-5.52L87.64-5.52L87.64-5.65Q87.64-5.77 87.61-5.90L87.61-5.90Q87.61-5.96 87.60-6.04L87.60-6.04L87.54-6.29Q87.53-6.35 87.53-6.41L87.53-6.41Q87.50-6.54 87.50-6.65L87.50-6.65Q87.50-7.27 88.06-7.27L88.06-7.27Q88.31-7.27 88.45-7.02L88.45-7.02ZM95.45-0.08Q95.45 0.29 95.05 0.52L95.05 0.52Q94.72 0.72 94.32 0.72L94.32 0.72Q93.78 0.72 93.34 0.59L93.34 0.59Q93 0.49 92.62 0.26L92.62 0.26L91.96-0.16Q91.52-0.42 91.13-0.59L91.13-0.59Q90.82-0.71 90.49-1.07L90.49-1.07L90.23-1.37Q90.06-1.56 89.95-1.67L89.95-1.67Q89.76-2.08 89.76-2.41L89.76-2.41Q89.76-2.68 89.93-2.68L89.93-2.68Q89.96-2.68 90.08-2.58L90.08-2.58Q90.18-2.51 90.40-2.32L90.40-2.32L90.59-2.15Q90.71-2.04 90.82-1.96L90.82-1.96Q91.09-1.72 91.33-1.54L91.33-1.54Q91.98-1.02 92.54-0.74L92.54-0.74Q93.26-0.38 93.84-0.38L93.84-0.38Q93.95-0.38 94.08-0.43L94.08-0.43Q94.13-0.44 94.20-0.48L94.20-0.48L94.43-0.58Q94.50-0.61 94.55-0.62L94.55-0.62Q94.68-0.67 94.79-0.67L94.79-0.67Q95.45-0.67 95.45-0.08L95.45-0.08ZM88.44-1.03L88.43-0.76Q88.40-0.59 88.37-0.47L88.37-0.47Q88.25-0.13 87.96-0.13L87.96-0.13Q87.72-0.13 87.56-0.36L87.56-0.36Q87.43-0.56 87.43-0.80L87.43-0.80Q87.43-1.03 87.47-1.33L87.47-1.33L87.64-2.39Q87.67-2.68 87.67-2.92L87.67-2.92Q87.67-3.05 87.71-3.26L87.71-3.26Q87.74-3.49 87.74-3.61L87.74-3.61Q87.74-3.90 88.00-4.04L88.00-4.04Q88.26-4.04 88.36-3.37L88.36-3.37Q88.38-3.16 88.39-2.87L88.39-2.87L88.39-2.53Q88.39-2.36 88.40-2.16L88.40-2.16L88.43-1.40Q88.44-1.20 88.44-1.03L88.44-1.03ZM86.84-3.92Q86.84-3.68 86.71-3.24L86.71-3.24Q86.57-2.81 86.57-2.59L86.57-2.59Q86.57-2.46 86.48-2.05L86.48-2.05Q86.40-1.66 86.28-1.20L86.28-1.20Q86.15-0.72 86.03-0.38L86.03-0.38Q85.90-0.01 85.81 0.05L85.81 0.05Q85.58 0.22 85.39 0.22L85.39 0.22Q84.94 0.22 84.94-0.36L84.94-0.36Q84.94-0.60 85.02-0.85L85.02-0.85Q85.08-1.02 85.22-1.30L85.22-1.30L85.44-1.73Q85.55-1.98 85.57-2.18L85.57-2.18Q85.61-2.44 85.70-2.80L85.70-2.80L85.84-3.26L85.90-3.42L86.06-4.06Q86.14-4.39 86.14-4.66L86.14-4.66L86.18-6.60L86.16-6.86Q86.16-7.07 86.26-7.16L86.26-7.16L86.40-7.22Q86.66-7.22 86.75-6.53L86.75-6.53Q86.77-6.29 86.77-5.98L86.77-5.98L86.77-5.58Q86.77-5.40 86.78-5.17L86.78-5.17L86.81-4.75Q86.83-4.48 86.83-4.34L86.83-4.34Q86.84-4.10 86.84-3.92L86.84-3.92ZM94.19-7.12L94.19-7.38Q94.19-7.62 93.95-7.78L93.95-7.78Q93.73-7.92 93.48-7.92L93.48-7.92L93.43-7.92Q93.25-7.81 93.13-7.66L93.13-7.66L93.22-7.50L93.24-7.32Q93.24-7.01 93.22-6.82L93.22-6.82Q93.17-6.52 93.06-6.34L93.06-6.34Q93.11-6.24 93.22-6.13L93.22-6.13L93.41-5.95Q93.95-6.08 94.10-6.47L94.10-6.47Q94.16-6.62 94.18-6.88L94.18-6.88Q94.19-6.97 94.19-7.12L94.19-7.12ZM104.11-7.33Q104.11-6.90 103.62-6.80L103.62-6.80Q103.44-6.77 103.18-6.76L103.18-6.76L102.65-6.77Q102.41-6.60 102.30-6.42L102.30-6.42L102.36-5.93Q102.36-5.86 102.34-5.72L102.34-5.72Q102.31-5.57 102.28-5.44L102.28-5.44Q102.17-5.09 102.01-5.09L102.01-5.09Q101.74-5.09 101.63-5.51L101.63-5.51Q101.59-5.65 101.58-5.86L101.58-5.86Q101.57-5.94 101.57-6.02L101.57-6.02L101.57-6.49L101.45-6.66Q101.36-6.79 101.32-6.82L101.32-6.82L101.02-6.80Q100.81-6.80 100.68-6.83L100.68-6.83Q100.28-6.90 100.28-7.22L100.28-7.22L100.28-7.30Q100.51-7.68 101.08-7.68L101.08-7.68Q101.20-7.68 101.39-7.66L101.39-7.66L101.66-7.98Q101.66-8.10 101.63-8.26L101.63-8.26L101.47-8.78Q101.44-8.93 101.44-9.06L101.44-9.06Q101.44-9.14 101.45-9.23L101.45-9.23Q101.46-9.34 101.48-9.42L101.48-9.42Q101.53-9.66 101.66-9.72L101.66-9.72L101.81-9.88Q101.90-9.96 101.98-9.96L101.98-9.96Q102.25-9.96 102.38-9.76L102.38-9.76Q102.62-9.59 102.62-9.17L102.62-9.17Q102.62-9.07 102.60-8.94L102.60-8.94Q102.60-8.89 102.59-8.83L102.59-8.83L102.53-8.62L102.52-8.50Q102.49-8.38 102.49-8.27L102.49-8.27L102.46-8.16Q102.43-8.09 102.41-8.05L102.41-8.05Q102.58-7.86 102.66-7.79L102.66-7.79L102.82-7.75Q102.90-7.73 102.95-7.73L102.95-7.73L103.22-7.73Q103.44-7.73 103.61-7.70L103.61-7.70Q104.11-7.62 104.11-7.33L104.11-7.33ZM106.90-0.11Q106.90-0.05 106.87 0.05L106.87 0.05Q106.85 0.16 106.82 0.20L106.82 0.20Q106.78 0.24 106.64 0.29L106.64 0.29Q106.51 0.34 106.46 0.34L106.46 0.34Q106.42 0.34 106.34 0.29L106.34 0.29Q106.30 0.25 106.21 0.17L106.21 0.17L106.12 0.07Q106.09 0.05 106.09 0.04L106.09 0.04Q106.02-0.04 105.98-0.06L105.98-0.06L105.79-0.37Q105.80-0.34 105.79-0.35L105.79-0.35L105.72-0.41Q105.66-0.47 105.60-0.50L105.60-0.50Q105.52-0.54 105.44-0.55L105.44-0.55Q105.43-0.58 105.48-0.72L105.48-0.72L105.53-0.91Q105.53-1.12 105.35-1.39L105.35-1.39L105.20-1.60Q105.13-1.72 105.11-1.80L105.11-1.80Q105.11-1.82 105.08-1.87L105.08-1.87Q105.07-1.88 105.06-1.92L105.06-1.92L105.01-2.06Q104.99-2.11 104.99-2.16L104.99-2.16Q104.96-2.40 105.32-2.35L105.32-2.35L105.78-2.16Q105.89-2.08 106.08-1.80L106.08-1.80Q106.26-1.54 106.45-1.20L106.45-1.20Q106.90-0.38 106.90-0.11L106.90-0.11ZM106.16-5.05Q106.16-4.85 106.14-4.63L106.14-4.63Q106.12-4.33 106.06-4.10L106.06-4.10Q105.89-3.47 105.52-3.47L105.52-3.47Q105.43-3.47 105.36-3.46L105.36-3.46L105.08-3.40Q105-3.38 104.93-3.38L104.93-3.38Q104.80-3.38 104.57-3.36L104.57-3.36Q104.34-3.32 104.22-3.32L104.22-3.32Q104.12-3.32 103.94-3.38L103.94-3.38Q103.75-3.44 103.66-3.44L103.66-3.44Q103.61-3.44 103.55-3.43L103.55-3.43L103.36-3.37Q103.30-3.36 103.25-3.36L103.25-3.36Q103.15-3.36 102.95-3.41L102.95-3.41Q102.89-3.41 102.86-3.42L102.86-3.42Q102.83-3.42 102.79-3.43L102.79-3.43Q102.71-3.44 102.65-3.44L102.65-3.44Q102.52-3.29 102.35-2.98L102.35-2.98L102.32-2.69Q102.30-2.46 102.26-2.28L102.26-2.28Q102.14-1.76 101.93-1.75L101.93-1.75Q101.78-1.85 101.69-2.16L101.69-2.16Q101.62-2.42 101.63-2.50L101.63-2.50Q101.60-2.56 101.59-2.66L101.59-2.66Q101.57-2.75 101.57-2.88L101.57-2.88Q101.56-2.98 101.56-3.08L101.56-3.08L101.56-3.22Q101.52-3.30 101.35-3.42L101.35-3.42Q101.18-3.54 101.08-3.54L101.08-3.54L99.95-3.52Q99.82-3.52 99.66-3.48L99.66-3.48L99.11-3.34Q98.95-3.30 98.82-3.30L98.82-3.30Q98.47-3.30 98.12-3.73L98.12-3.73Q97.79-4.14 97.79-4.52L97.79-4.52Q97.79-4.66 97.74-4.92L97.74-4.92Q97.69-5.17 97.69-5.29L97.69-5.29Q97.69-5.40 97.73-5.48L97.73-5.48Q97.78-5.59 97.82-5.98L97.82-5.98L97.86-6.31Q97.88-6.52 97.92-6.67L97.92-6.67Q98.02-7.08 98.18-7.30L98.18-7.30Q98.40-7.56 98.76-7.56L98.76-7.56Q99.35-7.56 99.76-7.09L99.76-7.09Q99.82-7.01 99.82-6.91L99.82-6.91Q99.82-6.70 99.47-6.64L99.47-6.64L99.18-6.60Q99.02-6.56 98.95-6.50L98.95-6.50Q98.74-6.43 98.62-5.88L98.62-5.88Q98.57-5.68 98.56-5.44L98.56-5.44Q98.53-5.24 98.53-5.10L98.53-5.10Q98.53-4.82 98.75-4.54L98.75-4.54Q98.96-4.24 99.22-4.24L99.22-4.24Q99.38-4.24 99.61-4.26L99.61-4.26L100.44-4.36Q100.67-4.38 100.84-4.38L100.84-4.38L101.35-4.38Q101.45-4.39 101.48-4.40L101.48-4.40Q101.62-4.46 101.72-4.67L101.72-4.67Q101.83-4.86 101.96-4.91L101.96-4.91Q101.99-4.90 102.06-4.82L102.06-4.82L102.38-4.51Q102.47-4.43 102.53-4.38L102.53-4.38Q102.58-4.40 102.65-4.40L102.65-4.40Q102.70-4.42 102.78-4.40L102.78-4.40L103.04-4.37Q103.18-4.37 103.39-4.30L103.39-4.30Q103.61-4.22 103.73-4.22L103.73-4.22L104.41-4.22Q105.30-4.22 105.30-5.18L105.30-5.18L105.30-5.45L105.28-5.81Q105.23-6.26 105.16-6.38L105.16-6.38Q105.16-6.60 104.86-6.77L104.86-6.77L104.60-6.90Q104.47-6.97 104.41-7.03L104.41-7.03L104.40-7.16Q104.40-7.58 104.78-7.58L104.78-7.58Q105.12-7.58 105.47-7.33L105.47-7.33Q105.90-7.03 106.06-6.31L106.06-6.31Q106.12-6.02 106.15-5.66L106.15-5.66Q106.16-5.41 106.16-5.05L106.16-5.05ZM105.24-0.55Q105.24-0.40 104.86-0.29L104.86-0.29Q104.54-0.22 103.99-0.18L103.99-0.18Q103.60-0.16 103.07-0.16L103.07-0.16L102.50-0.16Q102.35-0.16 101.92-0.04L101.92-0.04Q101.76 0 101.58 0.06L101.58 0.06L101.34 0.13L100.85 0.02Q100.49-0.06 100.34-0.06L100.34-0.06L99.17-0.06Q98.70-0.06 98.41-0.05L98.41-0.05Q98.06-0.04 98.00-0.02L98.00-0.02Q97.55-0.20 97.55-0.66L97.55-0.66Q97.55-0.89 97.80-1.03L97.80-1.03Q98.02-1.14 98.27-1.14L98.27-1.14Q98.47-1.14 98.84-1.08L98.84-1.08L100.27-0.79Q100.66-0.73 100.86-0.73L100.86-0.73Q100.93-0.73 101.00-0.76L101.00-0.76L101.26-0.88Q101.33-0.90 101.39-0.90L101.39-0.90Q101.51-0.90 101.68-1.19L101.68-1.19Q101.68-1.21 101.70-1.25L101.70-1.25L101.74-1.31Q101.77-1.38 101.81-1.42L101.81-1.42Q101.88-1.54 101.95-1.58L101.95-1.58Q101.96-1.58 102.04-1.49L102.04-1.49L102.30-1.04Q102.36-0.95 102.38-0.95L102.38-0.95Q102.54-0.95 102.80-0.92L102.80-0.92Q103.08-0.90 103.22-0.90L103.22-0.90L103.37-0.90Q103.50-0.90 103.63-0.89L103.63-0.89Q104.00-0.88 104.32-0.84L104.32-0.84Q104.72-0.80 104.95-0.74L104.95-0.74Q105.24-0.66 105.24-0.55L105.24-0.55Z" transform="translate(-0.708, 10.176)"/>
            </g>
        </g>
    </g>
</svg>